<svg width="285" height="252" viewBox="0 0 285 252" fill="none" xmlns="http://www.w3.org/2000/svg">
<g opacity="0.51">
<path d="M281.945 3.01997C281.948 3.0053 281.947 2.99362 281.95 2.97895C281.915 1.46594 281.881 -0.0529089 281.846 -1.56591C281.836 -1.9982 281.457 -2.36064 281.024 -2.35073C279.511 -2.31604 277.992 -2.28121 276.479 -2.24652C276.468 -2.24625 276.453 -2.243 276.439 -2.23974C276.024 -2.20687 275.685 -1.84547 275.695 -1.42487C275.729 0.0881348 275.764 1.60697 275.799 3.11997C275.809 3.55226 276.188 3.91471 276.62 3.90479C278.133 3.8701 279.652 3.83529 281.165 3.8006C281.399 3.79524 281.578 3.70346 281.704 3.57199C281.712 3.56303 281.718 3.55706 281.726 3.5481C281.732 3.54212 281.741 3.53315 281.746 3.52718C281.866 3.40753 281.944 3.23625 281.945 3.01997ZM277.39 2.27984C277.367 1.29843 277.345 0.322875 277.322 -0.658533C277.574 -0.664292 277.831 -0.670185 278.082 -0.675944C278.806 -0.692552 279.536 -0.709304 280.261 -0.725912C280.277 -0.00153938 280.294 0.72869 280.311 1.45306C280.316 1.70426 280.322 1.96128 280.328 2.21248C279.347 2.23498 278.365 2.25747 277.39 2.27984Z" fill="url(#paint0_linear_5_3729)"/>
<path d="M259.232 3.50068C259.198 1.98767 259.163 0.468828 259.128 -1.04418C259.118 -1.47646 258.739 -1.83891 258.307 -1.82899C256.794 -1.79431 255.275 -1.75948 253.762 -1.72479C253.329 -1.71488 252.967 -1.33543 252.977 -0.903141C253.012 0.609863 253.046 2.12871 253.081 3.64171C253.091 4.074 253.47 4.43644 253.903 4.42653C255.416 4.39184 256.935 4.35702 258.448 4.32233C258.681 4.31697 258.86 4.2252 258.986 4.09373C258.994 4.08477 259 4.0788 259.009 4.06983C259.014 4.06386 259.023 4.05489 259.029 4.04892C259.157 3.92031 259.238 3.74019 259.232 3.50068ZM254.672 2.80159C254.649 1.82018 254.627 0.844612 254.605 -0.136795C255.586 -0.159297 256.562 -0.181673 257.543 -0.204174C257.566 0.777234 257.588 1.75281 257.61 2.73422C256.629 2.75672 255.648 2.77922 254.672 2.80159Z" fill="url(#paint1_linear_5_3729)"/>
<path d="M282.469 25.6975C282.434 24.1845 282.399 22.6656 282.365 21.1526C282.355 20.7203 281.975 20.3579 281.543 20.3678C280.03 20.4025 278.511 20.4373 276.998 20.472C276.566 20.4819 276.203 20.8614 276.213 21.2936C276.248 22.8066 276.283 24.3255 276.317 25.8385C276.327 26.2708 276.707 26.6332 277.139 26.6233C278.652 26.5886 280.171 26.5538 281.684 26.5191C281.918 26.5137 282.097 26.422 282.222 26.2905C282.231 26.2815 282.236 26.2756 282.245 26.2666C282.251 26.2606 282.259 26.2517 282.265 26.2457C282.394 26.1171 282.474 25.937 282.469 25.6975ZM277.908 24.9984C277.886 24.0169 277.863 23.0414 277.841 22.06C278.822 22.0375 279.798 22.0151 280.779 21.9926C280.802 22.974 280.824 23.9496 280.847 24.931C279.865 24.9535 278.884 24.976 277.908 24.9984Z" fill="url(#paint2_linear_5_3729)"/>
<path d="M236.512 4.02109C236.477 2.50809 236.442 0.989255 236.408 -0.523749C236.399 -0.926827 236.072 -1.26127 235.683 -1.30202C235.651 -1.3042 235.621 -1.30937 235.586 -1.30857C234.073 -1.27388 232.554 -1.23906 231.041 -1.20437C230.609 -1.19446 230.247 -0.815009 230.256 -0.382723C230.291 1.13028 230.326 2.64914 230.361 4.16214C230.361 4.19719 230.368 4.22627 230.372 4.25833C230.43 4.64567 230.779 4.9562 231.182 4.94696C232.695 4.91227 234.214 4.87744 235.727 4.84275C235.961 4.83739 236.14 4.74561 236.265 4.61415C236.274 4.60519 236.28 4.59922 236.288 4.59026C236.294 4.58428 236.303 4.57532 236.308 4.56934C236.434 4.43788 236.514 4.25775 236.512 4.02109ZM231.949 3.32499C231.943 3.09133 231.938 2.85765 231.933 2.62398C231.916 1.87624 231.898 1.1285 231.881 0.386604C232.629 0.36946 233.377 0.352317 234.119 0.335307C234.352 0.329949 234.586 0.324601 234.82 0.319244C234.842 1.30065 234.865 2.27621 234.887 3.25762C233.909 3.27713 232.927 3.29964 231.949 3.32499Z" fill="url(#paint3_linear_5_3729)"/>
<path d="M259.752 26.218C259.717 24.7049 259.682 23.1861 259.648 21.6731C259.638 21.2408 259.258 20.8784 258.826 20.8883C257.313 20.923 255.794 20.9578 254.281 20.9925C253.849 21.0024 253.486 21.3818 253.496 21.8141C253.531 23.3271 253.566 24.846 253.601 26.359C253.61 26.7913 253.99 27.1537 254.422 27.1438C255.935 27.1091 257.454 27.0743 258.967 27.0396C259.201 27.0342 259.38 26.9425 259.505 26.811C259.514 26.802 259.52 26.7961 259.528 26.7871C259.534 26.7811 259.542 26.7722 259.548 26.7662C259.677 26.6376 259.757 26.4575 259.752 26.218ZM255.189 25.5218C255.166 24.5404 255.144 23.5649 255.121 22.5835C256.103 22.561 257.078 22.5386 258.06 22.5161C258.082 23.4975 258.105 24.4731 258.127 25.4545C257.149 25.474 256.167 25.4965 255.189 25.5218Z" fill="url(#paint4_linear_5_3729)"/>
<path d="M282.988 48.4152C282.954 46.9022 282.919 45.3834 282.884 43.8704C282.874 43.4381 282.495 43.0757 282.062 43.0856C280.549 43.1203 279.031 43.1551 277.518 43.1897C277.085 43.1997 276.723 43.5791 276.733 44.0114C276.767 45.5244 276.802 47.0433 276.837 48.5563C276.847 48.9886 277.226 49.351 277.659 49.3411C279.172 49.3064 280.69 49.2716 282.203 49.2369C282.437 49.2315 282.616 49.1398 282.742 49.0083C282.75 48.9993 282.756 48.9934 282.765 48.9844C282.77 48.9784 282.779 48.9695 282.785 48.9635C282.913 48.8349 282.994 48.6547 282.988 48.4152ZM278.425 47.7191C278.403 46.7377 278.38 45.7621 278.358 44.7807C279.339 44.7582 280.315 44.7359 281.296 44.7134C281.319 45.6948 281.341 46.6703 281.363 47.6517C280.385 47.6713 279.403 47.6938 278.425 47.7191Z" fill="url(#paint5_linear_5_3729)"/>
<path d="M237.033 26.7397C236.998 25.2267 236.964 23.7078 236.929 22.1948C236.919 21.7626 236.54 21.4001 236.107 21.41C234.594 21.4447 233.075 21.4795 231.562 21.5142C231.13 21.5241 230.768 21.9036 230.778 22.3359C230.812 23.8489 230.847 25.3677 230.882 26.8807C230.892 27.313 231.271 27.6755 231.703 27.6655C233.216 27.6309 234.735 27.596 236.248 27.5613C236.482 27.556 236.661 27.4642 236.787 27.3327C236.795 27.3238 236.801 27.3178 236.809 27.3088C236.815 27.3029 236.824 27.2939 236.829 27.2879C236.958 27.1593 237.039 26.9792 237.033 26.7397ZM232.47 26.0436C232.447 25.0622 232.425 24.0866 232.403 23.1052C233.384 23.0827 234.36 23.0603 235.341 23.0378C235.363 24.0192 235.386 24.9948 235.408 25.9762C234.43 25.9957 233.448 26.0182 232.47 26.0436Z" fill="url(#paint6_linear_5_3729)"/>
<path d="M260.273 48.9365C260.239 47.4235 260.204 45.9046 260.169 44.3916C260.159 43.9593 259.78 43.5969 259.348 43.6068C257.835 43.6415 256.316 43.6763 254.803 43.711C254.37 43.7209 254.008 44.1004 254.018 44.5326C254.053 46.0456 254.087 47.5645 254.122 49.0775C254.132 49.5098 254.511 49.8722 254.944 49.8623C256.457 49.8276 257.976 49.7928 259.489 49.7581C259.722 49.7528 259.901 49.661 260.027 49.5295C260.035 49.5206 260.041 49.5146 260.05 49.5056C260.055 49.4996 260.064 49.4907 260.07 49.4847C260.198 49.3561 260.279 49.176 260.273 48.9365ZM255.71 48.2403C255.688 47.2589 255.665 46.2834 255.643 45.302C256.624 45.2795 257.6 45.2571 258.581 45.2346C258.604 46.216 258.626 47.1916 258.649 48.173C257.67 48.1925 256.689 48.215 255.71 48.2403Z" fill="url(#paint7_linear_5_3729)"/>
<path d="M283.51 71.134C283.475 69.621 283.44 68.1021 283.406 66.5891C283.396 66.1568 283.016 65.7944 282.584 65.8043C281.071 65.839 279.552 65.8738 278.039 65.9085C277.607 65.9184 277.244 66.2979 277.254 66.7302C277.289 68.2432 277.324 69.762 277.358 71.275C277.368 71.7073 277.748 72.0698 278.18 72.0598C279.693 72.0252 281.212 71.9903 282.725 71.9556C282.959 71.9503 283.138 71.8585 283.263 71.727C283.272 71.7181 283.277 71.7121 283.286 71.7031C283.292 71.6971 283.3 71.6882 283.306 71.6822C283.435 71.5536 283.515 71.3735 283.51 71.134ZM278.946 70.4379C278.924 69.4565 278.902 68.4809 278.879 67.4995C279.861 67.477 280.836 67.4546 281.818 67.4321C281.84 68.4135 281.862 69.3891 281.885 70.3705C280.906 70.39 279.925 70.4125 278.946 70.4379Z" fill="url(#paint8_linear_5_3729)"/>
<path d="M214.313 27.2604C214.278 25.7474 214.243 24.2285 214.209 22.7155C214.199 22.3124 213.873 21.978 213.484 21.9372C213.451 21.9351 213.422 21.9299 213.387 21.9307C211.874 21.9654 210.355 22.0002 208.842 22.0349C208.41 22.0448 208.047 22.4243 208.057 22.8565C208.092 24.3696 208.127 25.8884 208.161 27.4014C208.162 27.4364 208.169 27.4655 208.172 27.4976C208.231 27.8849 208.58 28.1955 208.983 28.1862C210.496 28.1515 212.015 28.1167 213.528 28.082C213.762 28.0767 213.941 27.9849 214.066 27.8534C214.075 27.8445 214.08 27.8385 214.089 27.8295C214.095 27.8235 214.103 27.8146 214.109 27.8086C214.235 27.6771 214.315 27.497 214.313 27.2604ZM209.75 26.5642C209.744 26.3306 209.739 26.0969 209.733 25.8633C209.716 25.1155 209.699 24.3678 209.682 23.6259C210.43 23.6087 211.178 23.5916 211.92 23.5746C212.153 23.5692 212.387 23.5639 212.621 23.5585C212.643 24.5399 212.665 25.5155 212.688 26.4969C211.709 26.5164 210.728 26.5389 209.75 26.5642Z" fill="url(#paint9_linear_5_3729)"/>
<path d="M237.553 49.457C237.518 47.944 237.483 46.4251 237.448 44.9121C237.439 44.4798 237.059 44.1174 236.627 44.1273C235.114 44.162 233.595 44.1968 232.082 44.2315C231.65 44.2414 231.287 44.6209 231.297 45.0532C231.332 46.5662 231.367 48.085 231.401 49.598C231.411 50.0303 231.791 50.3927 232.223 50.3828C233.736 50.3481 235.255 50.3133 236.768 50.2786C237.001 50.2733 237.181 50.1815 237.306 50.05C237.315 50.0411 237.32 50.0351 237.329 50.0261C237.335 50.0202 237.343 50.0112 237.349 50.0052C237.478 49.8766 237.558 49.6965 237.553 49.457ZM232.989 48.7609C232.967 47.7795 232.945 46.8039 232.922 45.8225C233.904 45.8 234.879 45.7776 235.86 45.7551C235.883 46.7365 235.905 47.7121 235.928 48.6935C234.949 48.713 233.968 48.7355 232.989 48.7609Z" fill="url(#paint10_linear_5_3729)"/>
<path d="M260.793 71.6547C260.758 70.1417 260.723 68.6229 260.689 67.1099C260.679 66.6776 260.299 66.3152 259.867 66.3251C258.354 66.3598 256.835 66.3946 255.322 66.4293C254.89 66.4392 254.527 66.8186 254.537 67.2509C254.572 68.7639 254.607 70.2828 254.642 71.7958C254.651 72.2281 255.031 72.5905 255.463 72.5806C256.976 72.5459 258.495 72.5111 260.008 72.4764C260.242 72.471 260.421 72.3793 260.546 72.2478C260.555 72.2388 260.561 72.2329 260.569 72.2239C260.575 72.2179 260.583 72.209 260.589 72.203C260.718 72.0744 260.798 71.8942 260.793 71.6547ZM256.23 70.9586C256.207 69.9772 256.185 69.0017 256.162 68.0202C257.144 67.9977 258.119 67.9754 259.101 67.9529C259.123 68.9343 259.146 69.9099 259.168 70.8913C258.19 70.9108 257.208 70.9333 256.23 70.9586Z" fill="url(#paint11_linear_5_3729)"/>
<path d="M284.031 93.8525C283.996 92.3395 283.962 90.8206 283.927 89.3076C283.917 88.8753 283.538 88.5129 283.105 88.5228C281.592 88.5575 280.074 88.5923 278.561 88.627C278.128 88.6369 277.766 89.0164 277.776 89.4487C277.81 90.9617 277.845 92.4805 277.88 93.9935C277.89 94.4258 278.269 94.7882 278.701 94.7783C280.214 94.7436 281.733 94.7088 283.246 94.6741C283.48 94.6688 283.659 94.577 283.785 94.4455C283.793 94.4366 283.799 94.4306 283.807 94.4216C283.813 94.4157 283.822 94.4067 283.827 94.4007C283.956 94.2721 284.037 94.092 284.031 93.8525ZM279.468 93.1564C279.445 92.175 279.423 91.1994 279.401 90.218C280.382 90.1955 281.358 90.1731 282.339 90.1506C282.361 91.132 282.384 92.1076 282.406 93.089C281.428 93.1085 280.449 93.1339 279.468 93.1564Z" fill="url(#paint12_linear_5_3729)"/>
<path d="M214.836 49.9792C214.801 48.4662 214.766 46.9473 214.732 45.4343C214.722 45.0021 214.342 44.6396 213.91 44.6495C212.397 44.6842 210.878 44.719 209.365 44.7537C208.933 44.7636 208.57 45.1431 208.58 45.5754C208.615 47.0884 208.65 48.6072 208.685 50.1202C208.694 50.5525 209.074 50.915 209.506 50.905C211.019 50.8704 212.538 50.8355 214.051 50.8009C214.285 50.7955 214.464 50.7037 214.589 50.5723C214.598 50.5633 214.604 50.5573 214.612 50.5483C214.618 50.5424 214.626 50.5334 214.632 50.5274C214.758 50.4018 214.841 50.2187 214.836 49.9792ZM210.273 49.2831C210.25 48.3017 210.228 47.3261 210.205 46.3447C211.187 46.3222 212.162 46.2998 213.144 46.2773C213.166 47.2587 213.189 48.2343 213.211 49.2157C212.232 49.2352 211.251 49.2577 210.273 49.2831Z" fill="url(#paint13_linear_5_3729)"/>
<path d="M238.074 72.176C238.039 70.663 238.005 69.1441 237.97 67.6311C237.96 67.1988 237.581 66.8364 237.148 66.8463C235.635 66.881 234.116 66.9158 232.603 66.9505C232.171 66.9604 231.809 67.3399 231.819 67.7722C231.853 69.2852 231.888 70.804 231.923 72.317C231.933 72.7493 232.312 73.1117 232.744 73.1018C234.257 73.0671 235.776 73.0323 237.289 72.9976C237.523 72.9923 237.702 72.9005 237.828 72.769C237.836 72.7601 237.842 72.7541 237.85 72.7451C237.856 72.7392 237.865 72.7302 237.87 72.7242C237.996 72.5986 238.08 72.4155 238.074 72.176ZM233.511 71.4799C233.488 70.4984 233.466 69.5229 233.444 68.5415C234.425 68.519 235.401 68.4966 236.382 68.4741C236.404 69.4555 236.427 70.4311 236.449 71.4125C235.471 71.432 234.489 71.4545 233.511 71.4799Z" fill="url(#paint14_linear_5_3729)"/>
<path d="M261.314 94.3735C261.28 92.8605 261.245 91.3416 261.21 89.8286C261.2 89.3963 260.821 89.0339 260.389 89.0438C258.876 89.0785 257.357 89.1133 255.844 89.148C255.411 89.1579 255.049 89.5374 255.059 89.9697C255.094 91.4827 255.128 93.0015 255.163 94.5145C255.173 94.9468 255.552 95.3093 255.985 95.2993C257.498 95.2647 259.017 95.2298 260.53 95.1951C260.763 95.1898 260.942 95.098 261.068 94.9665C261.076 94.9576 261.082 94.9516 261.091 94.9426C261.096 94.9367 261.105 94.9277 261.111 94.9217C261.236 94.7961 261.32 94.613 261.314 94.3735ZM256.751 93.6774C256.729 92.696 256.706 91.7204 256.684 90.739C257.665 90.7165 258.641 90.6941 259.622 90.6716C259.645 91.653 259.667 92.6286 259.69 93.61C258.711 93.6295 257.73 93.652 256.751 93.6774Z" fill="url(#paint15_linear_5_3729)"/>
<path d="M284.553 116.571C284.518 115.058 284.483 113.54 284.448 112.027C284.439 111.594 284.059 111.232 283.627 111.242C282.114 111.276 280.595 111.311 279.082 111.346C278.65 111.356 278.287 111.735 278.297 112.168C278.332 113.681 278.367 115.2 278.401 116.713C278.411 117.145 278.791 117.507 279.223 117.497C280.736 117.463 282.255 117.428 283.768 117.393C284.001 117.388 284.181 117.296 284.306 117.165C284.315 117.156 284.32 117.15 284.329 117.141C284.335 117.135 284.343 117.126 284.349 117.12C284.475 116.994 284.558 116.811 284.553 116.571ZM279.989 115.875C279.967 114.894 279.945 113.918 279.922 112.937C280.904 112.914 281.879 112.892 282.86 112.87C282.883 113.851 282.905 114.827 282.928 115.808C281.949 115.828 280.971 115.853 279.989 115.875Z" fill="url(#paint16_linear_5_3729)"/>
<path d="M192.117 50.4994C192.083 48.9864 192.048 47.4675 192.013 45.9545C192.004 45.5514 191.678 45.217 191.288 45.1763C191.256 45.1741 191.227 45.1689 191.192 45.1697C189.679 45.2044 188.16 45.2392 186.647 45.2739C186.214 45.2838 185.852 45.6633 185.862 46.0956C185.897 47.6086 185.931 49.1274 185.966 50.6404C185.967 50.6755 185.973 50.7045 185.977 50.7366C186.036 51.1239 186.385 51.4345 186.788 51.4252C188.301 51.3905 189.82 51.3557 191.333 51.321C191.566 51.3157 191.745 51.2239 191.871 51.0924C191.879 51.0835 191.885 51.0775 191.894 51.0685C191.899 51.0626 191.908 51.0536 191.914 51.0476C192.036 50.9191 192.12 50.736 192.117 50.4994ZM187.554 49.8033C187.549 49.5696 187.544 49.3359 187.538 49.1023C187.521 48.3545 187.504 47.6068 187.487 46.8649C188.235 46.8477 188.982 46.8306 189.724 46.8136C189.958 46.8082 190.192 46.8029 190.425 46.7975C190.448 47.7789 190.47 48.7545 190.493 49.7359C189.511 49.7584 188.533 49.7779 187.554 49.8033Z" fill="url(#paint17_linear_5_3729)"/>
<path d="M215.353 72.6965C215.319 71.1835 215.284 69.6646 215.249 68.1516C215.239 67.7193 214.86 67.3569 214.428 67.3668C212.915 67.4015 211.396 67.4363 209.883 67.471C209.451 67.4809 209.088 67.8604 209.098 68.2927C209.133 69.8057 209.167 71.3245 209.202 72.8375C209.212 73.2698 209.591 73.6322 210.024 73.6223C211.537 73.5876 213.056 73.5528 214.569 73.5181C214.802 73.5128 214.981 73.421 215.107 73.2895C215.115 73.2806 215.121 73.2746 215.13 73.2656C215.135 73.2597 215.144 73.2507 215.15 73.2447C215.275 73.1191 215.359 72.936 215.353 72.6965ZM210.79 72.0004C210.768 71.019 210.745 70.0434 210.723 69.062C211.704 69.0395 212.68 69.0171 213.661 68.9946C213.684 69.976 213.706 70.9516 213.729 71.933C212.747 71.9555 211.769 71.975 210.79 72.0004Z" fill="url(#paint18_linear_5_3729)"/>
<path d="M238.594 94.894C238.559 93.381 238.524 91.8621 238.49 90.3491C238.48 89.9169 238.1 89.5544 237.668 89.5643C236.155 89.599 234.636 89.6338 233.123 89.6685C232.691 89.6784 232.328 90.0579 232.338 90.4902C232.373 92.0032 232.408 93.522 232.442 95.035C232.452 95.4673 232.832 95.8298 233.264 95.8199C234.777 95.7852 236.296 95.7503 237.809 95.7156C238.043 95.7103 238.222 95.6185 238.347 95.4871C238.356 95.4781 238.361 95.4721 238.37 95.4632C238.376 95.4572 238.384 95.4482 238.39 95.4422C238.516 95.3166 238.599 95.1335 238.594 94.894ZM234.03 94.1979C234.008 93.2165 233.986 92.2409 233.963 91.2595C234.945 91.237 235.92 91.2146 236.902 91.1921C236.924 92.1735 236.946 93.1491 236.969 94.1305C235.987 94.153 235.009 94.1725 234.03 94.1979Z" fill="url(#paint19_linear_5_3729)"/>
<path d="M261.834 117.092C261.799 115.579 261.764 114.06 261.73 112.547C261.72 112.115 261.34 111.752 260.908 111.762C259.395 111.797 257.876 111.832 256.363 111.867C255.931 111.876 255.569 112.256 255.578 112.688C255.613 114.201 255.648 115.72 255.683 117.233C255.692 117.665 256.072 118.028 256.504 118.018C258.017 117.983 259.536 117.948 261.049 117.914C261.283 117.908 261.462 117.816 261.587 117.685C261.596 117.676 261.602 117.67 261.61 117.661C261.616 117.655 261.624 117.646 261.63 117.64C261.756 117.515 261.839 117.331 261.834 117.092ZM257.271 116.396C257.248 115.414 257.226 114.439 257.203 113.457C258.185 113.435 259.16 113.413 260.142 113.39C260.164 114.372 260.187 115.347 260.209 116.328C259.228 116.351 258.252 116.373 257.271 116.396Z" fill="url(#paint20_linear_5_3729)"/>
<path d="M285.072 139.289C285.038 137.776 285.003 136.257 284.968 134.744C284.958 134.312 284.579 133.949 284.146 133.959C282.633 133.994 281.115 134.029 279.602 134.063C279.169 134.073 278.807 134.453 278.817 134.885C278.851 136.398 278.886 137.917 278.921 139.43C278.931 139.862 279.31 140.225 279.743 140.215C281.256 140.18 282.774 140.145 284.287 140.11C284.521 140.105 284.7 140.013 284.826 139.882C284.834 139.873 284.84 139.867 284.849 139.858C284.854 139.852 284.863 139.843 284.868 139.837C284.994 139.711 285.078 139.528 285.072 139.289ZM280.509 138.593C280.487 137.611 280.464 136.636 280.442 135.654C281.423 135.632 282.399 135.609 283.38 135.587C283.403 136.568 283.425 137.544 283.447 138.525C282.466 138.548 281.49 138.57 280.509 138.593Z" fill="url(#paint21_linear_5_3729)"/>
<path d="M192.801 72.8742C192.766 71.3612 192.731 69.8424 192.697 68.3294C192.687 67.8971 192.307 67.5346 191.875 67.5445C190.362 67.5792 188.843 67.614 187.33 67.6487C186.898 67.6586 186.535 68.0381 186.545 68.4704C186.58 69.9834 186.615 71.5022 186.649 73.0152C186.659 73.4475 187.039 73.81 187.471 73.8001C188.984 73.7654 190.503 73.7305 192.016 73.6959C192.25 73.6905 192.429 73.5987 192.554 73.4673C192.563 73.4583 192.568 73.4523 192.577 73.4434C192.583 73.4374 192.591 73.4284 192.597 73.4224C192.723 73.2968 192.806 73.1137 192.801 72.8742ZM188.238 72.1781C188.215 71.1967 188.193 70.2211 188.17 69.2397C189.152 69.2172 190.127 69.1949 191.109 69.1724C191.131 70.1538 191.153 71.1293 191.176 72.1107C190.194 72.1332 189.216 72.1527 188.238 72.1781Z" fill="url(#paint22_linear_5_3729)"/>
<path d="M215.875 95.415C215.84 93.902 215.805 92.3831 215.771 90.8701C215.761 90.4378 215.381 90.0754 214.949 90.0853C213.436 90.12 211.917 90.1548 210.404 90.1895C209.972 90.1994 209.61 90.5789 209.619 91.0112C209.654 92.5242 209.689 94.043 209.724 95.556C209.733 95.9883 210.113 96.3507 210.545 96.3408C212.058 96.3061 213.577 96.2713 215.09 96.2366C215.324 96.2313 215.503 96.1395 215.628 96.008C215.637 95.9991 215.643 95.9931 215.651 95.9841C215.657 95.9781 215.666 95.9692 215.671 95.9632C215.797 95.8376 215.88 95.6545 215.875 95.415ZM211.312 94.7189C211.289 93.7375 211.267 92.7619 211.244 91.7805C212.226 91.758 213.201 91.7356 214.183 91.7131C214.205 92.6945 214.228 93.6701 214.25 94.6515C213.269 94.674 212.29 94.6935 211.312 94.7189Z" fill="url(#paint23_linear_5_3729)"/>
<path d="M239.115 117.612C239.08 116.099 239.046 114.581 239.011 113.068C239.001 112.635 238.622 112.273 238.189 112.283C236.676 112.318 235.158 112.352 233.645 112.387C233.212 112.397 232.85 112.776 232.86 113.209C232.894 114.722 232.929 116.241 232.964 117.754C232.974 118.186 233.353 118.548 233.785 118.538C235.298 118.504 236.817 118.469 238.33 118.434C238.564 118.429 238.743 118.337 238.869 118.206C238.877 118.197 238.883 118.191 238.891 118.182C238.897 118.176 238.906 118.167 238.911 118.161C239.037 118.035 239.121 117.852 239.115 117.612ZM234.552 116.916C234.529 115.935 234.507 114.959 234.485 113.978C235.466 113.955 236.442 113.933 237.423 113.911C237.445 114.892 237.468 115.868 237.49 116.849C236.509 116.872 235.53 116.891 234.552 116.916Z" fill="url(#paint24_linear_5_3729)"/>
<path d="M262.355 139.81C262.321 138.297 262.286 136.779 262.251 135.266C262.241 134.833 261.862 134.471 261.43 134.481C259.917 134.516 258.398 134.55 256.885 134.585C256.452 134.595 256.09 134.974 256.1 135.407C256.135 136.92 256.169 138.439 256.204 139.952C256.214 140.384 256.593 140.746 257.026 140.736C258.539 140.702 260.058 140.667 261.571 140.632C261.804 140.627 261.983 140.535 262.109 140.404C262.117 140.395 262.123 140.389 262.132 140.38C262.137 140.374 262.146 140.365 262.152 140.359C262.277 140.233 262.361 140.05 262.355 139.81ZM257.792 139.114C257.77 138.133 257.747 137.157 257.725 136.176C258.706 136.153 259.682 136.131 260.663 136.109C260.686 137.09 260.708 138.066 260.731 139.047C259.749 139.07 258.774 139.092 257.792 139.114Z" fill="url(#paint25_linear_5_3729)"/>
<path d="M285.594 162.008C285.559 160.495 285.524 158.976 285.49 157.463C285.48 157.031 285.1 156.668 284.668 156.678C283.155 156.713 281.636 156.748 280.123 156.783C279.691 156.792 279.328 157.172 279.338 157.604C279.373 159.117 279.408 160.636 279.442 162.149C279.452 162.581 279.832 162.944 280.264 162.934C281.777 162.899 283.296 162.864 284.809 162.83C285.043 162.824 285.222 162.733 285.347 162.601C285.356 162.592 285.361 162.586 285.37 162.577C285.376 162.571 285.384 162.562 285.39 162.556C285.516 162.431 285.599 162.248 285.594 162.008ZM281.03 161.312C281.008 160.33 280.986 159.355 280.963 158.374C281.945 158.351 282.92 158.329 283.902 158.306C283.924 159.288 283.946 160.263 283.969 161.245C282.987 161.267 282.012 161.289 281.03 161.312Z" fill="url(#paint26_linear_5_3729)"/>
<path d="M169.916 73.7418C169.882 72.2288 169.847 70.71 169.812 69.1969C169.803 68.7939 169.477 68.4594 169.087 68.4187C169.055 68.4165 169.025 68.4113 168.99 68.4121C167.477 68.4468 165.959 68.4817 164.446 68.5163C164.013 68.5263 163.651 68.9057 163.661 69.338C163.695 70.851 163.73 72.3698 163.765 73.8828C163.766 73.9179 163.772 73.947 163.776 73.979C163.834 74.3664 164.183 74.6769 164.587 74.6677C166.1 74.633 167.618 74.5982 169.131 74.5635C169.365 74.5581 169.544 74.4663 169.67 74.3349C169.678 74.3259 169.684 74.3199 169.693 74.311C169.698 74.305 169.707 74.296 169.713 74.29C169.838 74.1586 169.922 73.9755 169.916 73.7418ZM165.356 73.0427C165.351 72.809 165.345 72.5754 165.34 72.3417C165.323 71.594 165.306 70.8462 165.289 70.1043C166.036 70.0872 166.784 70.07 167.526 70.053C167.76 70.0477 167.993 70.0423 168.227 70.037C168.249 71.0184 168.272 71.9939 168.294 72.9753C167.313 72.9978 166.334 73.0173 165.356 73.0427Z" fill="url(#paint27_linear_5_3729)"/>
<path d="M193.156 95.9387C193.121 94.4257 193.087 92.9068 193.052 91.3938C193.042 90.9615 192.663 90.5991 192.23 90.609C190.717 90.6437 189.199 90.6785 187.686 90.7132C187.253 90.7231 186.891 91.1026 186.901 91.5349C186.935 93.0479 186.97 94.5667 187.005 96.0797C187.015 96.512 187.394 96.8744 187.826 96.8645C189.339 96.8298 190.858 96.795 192.371 96.7603C192.605 96.755 192.784 96.6632 192.91 96.5317C192.918 96.5228 192.924 96.5168 192.932 96.5078C192.938 96.5018 192.947 96.4929 192.952 96.4869C193.081 96.3583 193.164 96.1752 193.156 95.9387ZM188.596 95.2396C188.573 94.2581 188.551 93.2826 188.528 92.3012C189.51 92.2787 190.485 92.2563 191.467 92.2338C191.489 93.2152 191.512 94.1908 191.534 95.1722C190.553 95.1947 189.574 95.2142 188.596 95.2396Z" fill="url(#paint28_linear_5_3729)"/>
<path d="M216.392 118.136C216.358 116.623 216.323 115.105 216.288 113.592C216.278 113.159 215.899 112.797 215.467 112.807C213.954 112.841 212.435 112.876 210.922 112.911C210.49 112.921 210.127 113.3 210.137 113.733C210.172 115.246 210.207 116.764 210.241 118.277C210.251 118.71 210.631 119.072 211.063 119.062C212.576 119.028 214.095 118.993 215.608 118.958C215.841 118.953 216.02 118.861 216.146 118.73C216.155 118.721 216.16 118.715 216.169 118.706C216.175 118.7 216.183 118.691 216.189 118.685C216.317 118.556 216.401 118.373 216.392 118.136ZM211.832 117.437C211.81 116.456 211.787 115.48 211.765 114.499C212.746 114.476 213.722 114.454 214.703 114.432C214.726 115.413 214.748 116.389 214.771 117.37C213.789 117.392 212.811 117.412 211.832 117.437Z" fill="url(#paint29_linear_5_3729)"/>
<path d="M239.633 140.334C239.598 138.821 239.563 137.302 239.529 135.789C239.519 135.357 239.139 134.995 238.707 135.004C237.194 135.039 235.675 135.074 234.162 135.109C233.73 135.119 233.367 135.498 233.377 135.93C233.412 137.443 233.447 138.962 233.481 140.475C233.491 140.907 233.871 141.27 234.303 141.26C235.816 141.225 237.335 141.191 238.848 141.156C239.082 141.15 239.261 141.059 239.386 140.927C239.395 140.918 239.4 140.912 239.409 140.903C239.415 140.897 239.423 140.888 239.429 140.882C239.558 140.754 239.641 140.571 239.633 140.334ZM235.072 139.635C235.05 138.654 235.028 137.678 235.005 136.697C235.986 136.674 236.962 136.652 237.943 136.629C237.966 137.611 237.988 138.586 238.011 139.568C237.029 139.59 236.054 139.613 235.072 139.635Z" fill="url(#paint30_linear_5_3729)"/>
<path d="M262.871 162.531C262.836 161.018 262.802 159.499 262.767 157.986C262.757 157.554 262.378 157.191 261.945 157.201C260.432 157.236 258.913 157.271 257.4 157.305C256.968 157.315 256.606 157.695 256.616 158.127C256.65 159.64 256.685 161.159 256.72 162.672C256.73 163.104 257.109 163.466 257.541 163.457C259.054 163.422 260.573 163.387 262.086 163.352C262.32 163.347 262.499 163.255 262.625 163.124C262.633 163.115 262.639 163.109 262.647 163.1C262.653 163.094 262.662 163.085 262.667 163.079C262.796 162.95 262.879 162.767 262.871 162.531ZM258.311 161.832C258.288 160.85 258.266 159.875 258.243 158.893C259.225 158.871 260.2 158.848 261.182 158.826C261.204 159.807 261.227 160.783 261.249 161.764C260.268 161.787 259.292 161.809 258.311 161.832Z" fill="url(#paint31_linear_5_3729)"/>
<path d="M286.109 184.728C286.075 183.215 286.04 181.696 286.005 180.183C285.995 179.751 285.616 179.389 285.184 179.399C283.67 179.433 282.152 179.468 280.639 179.503C280.206 179.513 279.844 179.892 279.854 180.324C279.888 181.837 279.923 183.356 279.958 184.869C279.968 185.302 280.347 185.664 280.78 185.654C282.293 185.619 283.811 185.585 285.324 185.55C285.558 185.545 285.737 185.453 285.863 185.321C285.871 185.312 285.877 185.306 285.886 185.297C285.891 185.291 285.9 185.282 285.906 185.276C286.034 185.148 286.118 184.965 286.109 184.728ZM281.549 184.029C281.526 183.048 281.504 182.072 281.482 181.091C282.463 181.068 283.439 181.046 284.42 181.023C284.442 182.005 284.465 182.98 284.487 183.962C283.506 183.984 282.53 184.007 281.549 184.029Z" fill="url(#paint32_linear_5_3729)"/>
<path d="M170.437 96.4609C170.403 94.9479 170.368 93.429 170.333 91.916C170.323 91.4837 169.944 91.1213 169.512 91.1312C167.999 91.1659 166.48 91.2007 164.967 91.2354C164.534 91.2453 164.172 91.6248 164.182 92.0571C164.217 93.5701 164.251 95.0889 164.286 96.6019C164.296 97.0342 164.675 97.3966 165.108 97.3867C166.621 97.352 168.14 97.3172 169.653 97.2825C169.886 97.2772 170.065 97.1854 170.191 97.0539C170.199 97.045 170.205 97.039 170.214 97.03C170.219 97.0241 170.228 97.0151 170.234 97.0091C170.362 96.8805 170.446 96.6974 170.437 96.4609ZM165.877 95.7618C165.855 94.7804 165.832 93.8048 165.81 92.8234C166.791 92.8009 167.767 92.7785 168.748 92.756C168.771 93.7374 168.793 94.713 168.815 95.6944C167.834 95.7169 166.855 95.7364 165.877 95.7618Z" fill="url(#paint33_linear_5_3729)"/>
<path d="M193.676 118.658C193.641 117.145 193.606 115.626 193.572 114.113C193.562 113.681 193.182 113.318 192.75 113.328C191.237 113.363 189.718 113.398 188.205 113.432C187.773 113.442 187.41 113.822 187.42 114.254C187.455 115.767 187.49 117.286 187.524 118.799C187.534 119.231 187.914 119.593 188.346 119.584C189.859 119.549 191.378 119.514 192.891 119.479C193.125 119.474 193.304 119.382 193.429 119.251C193.438 119.242 193.443 119.236 193.452 119.227C193.458 119.221 193.466 119.212 193.472 119.206C193.601 119.077 193.684 118.894 193.676 118.658ZM189.115 117.959C189.093 116.977 189.071 116.002 189.048 115.02C190.029 114.998 191.005 114.975 191.986 114.953C192.009 115.934 192.031 116.91 192.054 117.891C191.072 117.914 190.094 117.933 189.115 117.959Z" fill="url(#paint34_linear_5_3729)"/>
<path d="M216.914 140.855C216.879 139.342 216.845 137.823 216.81 136.31C216.8 135.878 216.42 135.516 215.988 135.526C214.475 135.56 212.956 135.595 211.443 135.63C211.011 135.64 210.649 136.019 210.658 136.451C210.693 137.964 210.728 139.483 210.763 140.996C210.773 141.428 211.152 141.791 211.584 141.781C213.097 141.746 214.616 141.712 216.129 141.677C216.363 141.671 216.542 141.58 216.667 141.448C216.676 141.439 216.682 141.433 216.69 141.424C216.696 141.418 216.705 141.409 216.71 141.403C216.839 141.275 216.922 141.092 216.914 140.855ZM212.354 140.156C212.331 139.175 212.309 138.199 212.286 137.218C213.268 137.195 214.243 137.173 215.225 137.15C215.247 138.132 215.27 139.107 215.292 140.089C214.311 140.111 213.332 140.131 212.354 140.156Z" fill="url(#paint35_linear_5_3729)"/>
<path d="M240.154 163.053C240.12 161.54 240.085 160.021 240.05 158.508C240.04 158.076 239.661 157.713 239.228 157.723C237.715 157.758 236.197 157.793 234.684 157.827C234.251 157.837 233.889 158.217 233.899 158.649C233.933 160.162 233.968 161.681 234.003 163.194C234.013 163.626 234.392 163.989 234.825 163.979C236.338 163.944 237.856 163.909 239.369 163.875C239.603 163.869 239.782 163.777 239.908 163.646C239.916 163.637 239.922 163.631 239.931 163.622C239.936 163.616 239.945 163.607 239.951 163.601C240.079 163.473 240.163 163.289 240.154 163.053ZM235.594 162.354C235.571 161.372 235.549 160.397 235.527 159.415C236.508 159.393 237.484 159.371 238.465 159.348C238.487 160.329 238.51 161.305 238.532 162.286C237.551 162.309 236.575 162.331 235.594 162.354Z" fill="url(#paint36_linear_5_3729)"/>
<path d="M263.392 185.25C263.358 183.737 263.323 182.219 263.288 180.706C263.278 180.273 262.899 179.911 262.467 179.921C260.954 179.955 259.435 179.99 257.922 180.025C257.49 180.035 257.127 180.414 257.137 180.847C257.172 182.36 257.207 183.878 257.241 185.391C257.251 185.824 257.631 186.186 258.063 186.176C259.576 186.142 261.095 186.107 262.608 186.072C262.841 186.067 263.02 185.975 263.146 185.843C263.155 185.835 263.16 185.829 263.169 185.82C263.175 185.814 263.183 185.805 263.189 185.799C263.317 185.67 263.401 185.487 263.392 185.25ZM258.832 184.551C258.81 183.57 258.787 182.594 258.765 181.613C259.746 181.59 260.722 181.568 261.703 181.546C261.726 182.527 261.748 183.503 261.771 184.484C260.789 184.506 259.814 184.529 258.832 184.551Z" fill="url(#paint37_linear_5_3729)"/>
<path d="M286.631 207.447C286.596 205.934 286.561 204.415 286.527 202.902C286.517 202.47 286.137 202.108 285.705 202.118C284.192 202.152 282.673 202.187 281.16 202.222C280.728 202.232 280.365 202.611 280.375 203.043C280.41 204.556 280.445 206.075 280.479 207.588C280.489 208.021 280.869 208.383 281.301 208.373C282.814 208.338 284.333 208.304 285.846 208.269C286.08 208.264 286.259 208.172 286.384 208.04C286.393 208.031 286.399 208.025 286.407 208.016C286.413 208.01 286.421 208.001 286.427 207.995C286.556 207.867 286.639 207.684 286.631 207.447ZM282.07 206.748C282.048 205.767 282.026 204.791 282.003 203.81C282.984 203.787 283.96 203.765 284.941 203.742C284.964 204.724 284.986 205.699 285.009 206.681C284.027 206.703 283.052 206.726 282.07 206.748Z" fill="url(#paint38_linear_5_3729)"/>
<path d="M147.717 96.9811C147.682 95.4681 147.648 93.9492 147.613 92.4362C147.604 92.0331 147.277 91.6987 146.888 91.6579C146.856 91.6558 146.826 91.6506 146.791 91.6514C145.278 91.6861 143.759 91.7209 142.246 91.7556C141.814 91.7655 141.452 92.145 141.462 92.5772C141.496 94.0902 141.531 95.6091 141.566 97.1221C141.566 97.1572 141.573 97.1862 141.577 97.2183C141.635 97.6056 141.984 97.9162 142.387 97.9069C143.9 97.8722 145.419 97.8374 146.932 97.8027C147.166 97.7974 147.345 97.7056 147.471 97.5741C147.479 97.5652 147.485 97.5592 147.493 97.5502C147.499 97.5442 147.508 97.5353 147.513 97.5293C147.639 97.3978 147.722 97.2147 147.717 96.9811ZM143.157 96.282C143.151 96.0483 143.146 95.8146 143.141 95.581C143.123 94.8332 143.106 94.0855 143.089 93.3436C143.837 93.3264 144.585 93.3093 145.327 93.2923C145.56 93.2869 145.794 93.2816 146.028 93.2762C146.05 94.2576 146.073 95.2332 146.095 96.2146C145.114 96.2371 144.135 96.2566 143.157 96.282Z" fill="url(#paint39_linear_5_3729)"/>
<path d="M170.957 119.178C170.922 117.665 170.887 116.146 170.853 114.633C170.843 114.201 170.463 113.839 170.031 113.848C168.518 113.883 166.999 113.918 165.486 113.953C165.054 113.963 164.692 114.342 164.701 114.774C164.736 116.287 164.771 117.806 164.806 119.319C164.816 119.751 165.195 120.114 165.627 120.104C167.14 120.069 168.659 120.035 170.172 120C170.406 119.994 170.585 119.903 170.71 119.771C170.719 119.762 170.725 119.756 170.733 119.747C170.739 119.741 170.748 119.732 170.753 119.726C170.882 119.598 170.965 119.415 170.957 119.178ZM166.397 118.479C166.374 117.498 166.352 116.522 166.329 115.541C167.311 115.518 168.286 115.496 169.268 115.473C169.29 116.455 169.313 117.43 169.335 118.412C168.354 118.434 167.375 118.454 166.397 118.479Z" fill="url(#paint40_linear_5_3729)"/>
<path d="M194.197 141.375C194.163 139.862 194.128 138.344 194.093 136.831C194.083 136.398 193.704 136.036 193.271 136.046C191.758 136.08 190.24 136.115 188.727 136.15C188.294 136.16 187.932 136.539 187.942 136.972C187.976 138.485 188.011 140.003 188.046 141.516C188.056 141.949 188.435 142.311 188.868 142.301C190.381 142.267 191.899 142.232 193.412 142.197C193.646 142.192 193.825 142.1 193.951 141.968C193.959 141.96 193.965 141.954 193.974 141.945C193.979 141.939 193.988 141.93 193.993 141.924C194.122 141.795 194.206 141.612 194.197 141.375ZM189.637 140.676C189.614 139.695 189.592 138.719 189.57 137.738C190.551 137.715 191.526 137.693 192.508 137.671C192.53 138.652 192.553 139.628 192.575 140.609C191.594 140.631 190.615 140.651 189.637 140.676Z" fill="url(#paint41_linear_5_3729)"/>
<path d="M217.435 163.573C217.401 162.06 217.366 160.542 217.331 159.029C217.321 158.596 216.942 158.234 216.51 158.244C214.997 158.278 213.478 158.313 211.965 158.348C211.533 158.358 211.17 158.737 211.18 159.17C211.215 160.683 211.249 162.201 211.284 163.714C211.294 164.147 211.673 164.509 212.106 164.499C213.619 164.465 215.138 164.43 216.651 164.395C216.884 164.39 217.063 164.298 217.189 164.166C217.198 164.158 217.203 164.152 217.212 164.143C217.218 164.137 217.226 164.128 217.232 164.122C217.36 163.993 217.444 163.81 217.435 163.573ZM212.875 162.874C212.853 161.893 212.83 160.917 212.808 159.936C213.789 159.913 214.765 159.891 215.746 159.869C215.769 160.85 215.791 161.826 215.814 162.807C214.832 162.829 213.857 162.852 212.875 162.874Z" fill="url(#paint42_linear_5_3729)"/>
<path d="M240.674 185.77C240.639 184.257 240.604 182.738 240.57 181.225C240.56 180.793 240.18 180.431 239.748 180.441C238.235 180.475 236.716 180.51 235.203 180.545C234.771 180.555 234.408 180.934 234.418 181.366C234.453 182.879 234.488 184.398 234.522 185.911C234.532 186.344 234.912 186.706 235.344 186.696C236.857 186.661 238.376 186.627 239.889 186.592C240.123 186.587 240.302 186.495 240.427 186.363C240.436 186.354 240.442 186.348 240.45 186.339C240.456 186.333 240.464 186.324 240.47 186.318C240.599 186.19 240.682 186.007 240.674 185.77ZM236.113 185.071C236.091 184.09 236.069 183.114 236.046 182.133C237.027 182.11 238.003 182.088 238.984 182.065C239.007 183.047 239.029 184.022 239.052 185.004C238.07 185.026 237.095 185.049 236.113 185.071Z" fill="url(#paint43_linear_5_3729)"/>
<path d="M263.912 207.968C263.877 206.455 263.843 204.936 263.808 203.423C263.798 202.991 263.419 202.628 262.986 202.638C261.473 202.673 259.954 202.708 258.441 202.742C258.009 202.752 257.647 203.132 257.657 203.564C257.691 205.077 257.726 206.596 257.761 208.109C257.771 208.541 258.15 208.903 258.582 208.894C260.095 208.859 261.614 208.824 263.127 208.789C263.361 208.784 263.54 208.692 263.666 208.561C263.674 208.552 263.68 208.546 263.688 208.537C263.694 208.531 263.703 208.522 263.708 208.516C263.837 208.387 263.92 208.204 263.912 207.968ZM259.352 207.269C259.329 206.287 259.307 205.312 259.284 204.33C260.266 204.308 261.241 204.285 262.223 204.263C262.245 205.244 262.268 206.22 262.29 207.201C261.309 207.224 260.333 207.246 259.352 207.269Z" fill="url(#paint44_linear_5_3729)"/>
<path d="M148.238 119.7C148.204 118.187 148.169 116.668 148.134 115.155C148.124 114.723 147.745 114.361 147.312 114.37C145.799 114.405 144.281 114.44 142.768 114.475C142.335 114.485 141.973 114.864 141.983 115.296C142.017 116.809 142.052 118.328 142.087 119.841C142.097 120.273 142.476 120.636 142.909 120.626C144.422 120.591 145.94 120.556 147.453 120.522C147.687 120.516 147.866 120.425 147.992 120.293C148 120.284 148.006 120.278 148.015 120.269C148.02 120.263 148.029 120.254 148.035 120.248C148.163 120.12 148.247 119.937 148.238 119.7ZM143.678 119.001C143.655 118.02 143.633 117.044 143.611 116.063C144.592 116.04 145.567 116.018 146.549 115.995C146.571 116.977 146.594 117.952 146.616 118.934C145.635 118.956 144.656 118.976 143.678 119.001Z" fill="url(#paint45_linear_5_3729)"/>
<path d="M171.478 141.897C171.444 140.384 171.409 138.865 171.374 137.352C171.364 136.92 170.985 136.557 170.553 136.567C169.04 136.602 167.521 136.637 166.008 136.671C165.576 136.681 165.213 137.061 165.223 137.493C165.258 139.006 165.292 140.525 165.327 142.038C165.337 142.47 165.716 142.833 166.149 142.823C167.662 142.788 169.181 142.753 170.694 142.719C170.927 142.713 171.106 142.621 171.232 142.49C171.24 142.481 171.246 142.475 171.255 142.466C171.26 142.46 171.269 142.451 171.275 142.445C171.403 142.317 171.487 142.133 171.478 141.897ZM166.918 141.198C166.896 140.216 166.873 139.241 166.851 138.259C167.832 138.237 168.808 138.215 169.789 138.192C169.812 139.173 169.834 140.149 169.856 141.13C168.875 141.153 167.897 141.172 166.918 141.198Z" fill="url(#paint46_linear_5_3729)"/>
<path d="M194.719 164.094C194.684 162.581 194.649 161.063 194.615 159.55C194.605 159.117 194.225 158.755 193.793 158.765C192.28 158.799 190.761 158.834 189.248 158.869C188.816 158.879 188.453 159.258 188.463 159.691C188.498 161.204 188.533 162.722 188.567 164.235C188.577 164.668 188.957 165.03 189.389 165.02C190.902 164.986 192.421 164.951 193.934 164.916C194.168 164.911 194.347 164.819 194.472 164.687C194.481 164.679 194.486 164.673 194.495 164.664C194.501 164.658 194.509 164.649 194.515 164.643C194.644 164.514 194.727 164.331 194.719 164.094ZM190.158 163.395C190.136 162.414 190.113 161.438 190.091 160.457C191.072 160.434 192.048 160.412 193.029 160.39C193.052 161.371 193.074 162.347 193.097 163.328C192.115 163.35 191.137 163.37 190.158 163.395Z" fill="url(#paint47_linear_5_3729)"/>
<path d="M217.955 186.292C217.92 184.779 217.886 183.26 217.851 181.747C217.841 181.315 217.461 180.953 217.029 180.963C215.516 180.997 213.997 181.032 212.484 181.067C212.052 181.077 211.69 181.456 211.7 181.888C211.734 183.401 211.769 184.92 211.804 186.433C211.814 186.865 212.193 187.228 212.625 187.218C214.138 187.183 215.657 187.149 217.17 187.114C217.404 187.108 217.583 187.017 217.708 186.885C217.717 186.876 217.723 186.87 217.731 186.861C217.737 186.855 217.746 186.846 217.751 186.84C217.88 186.712 217.963 186.529 217.955 186.292ZM213.395 185.593C213.372 184.612 213.35 183.636 213.327 182.655C214.309 182.632 215.284 182.61 216.266 182.587C216.288 183.569 216.311 184.544 216.333 185.526C215.352 185.548 214.376 185.571 213.395 185.593Z" fill="url(#paint48_linear_5_3729)"/>
<path d="M241.195 208.49C241.161 206.977 241.126 205.458 241.091 203.945C241.081 203.513 240.702 203.15 240.269 203.16C238.756 203.195 237.238 203.23 235.725 203.264C235.292 203.274 234.93 203.654 234.94 204.086C234.974 205.599 235.009 207.118 235.044 208.631C235.054 209.063 235.433 209.426 235.866 209.416C237.379 209.381 238.897 209.346 240.41 209.312C240.644 209.306 240.823 209.214 240.949 209.083C240.957 209.074 240.963 209.068 240.972 209.059C240.977 209.053 240.986 209.044 240.992 209.038C241.12 208.91 241.204 208.726 241.195 208.49ZM236.635 207.791C236.612 206.809 236.59 205.834 236.568 204.852C237.549 204.83 238.525 204.808 239.506 204.785C239.528 205.767 239.551 206.742 239.573 207.723C238.592 207.746 237.616 207.768 236.635 207.791Z" fill="url(#paint49_linear_5_3729)"/>
<path d="M264.434 230.686C264.399 229.173 264.364 227.655 264.329 226.142C264.319 225.709 263.94 225.347 263.508 225.357C261.995 225.391 260.476 225.426 258.963 225.461C258.531 225.471 258.168 225.85 258.178 226.283C258.213 227.796 258.248 229.314 258.282 230.827C258.292 231.26 258.672 231.622 259.104 231.612C260.617 231.578 262.136 231.543 263.649 231.508C263.882 231.503 264.061 231.411 264.187 231.28C264.196 231.271 264.201 231.265 264.21 231.256C264.216 231.25 264.224 231.241 264.23 231.235C264.358 231.106 264.442 230.923 264.434 230.686ZM259.873 229.987C259.851 229.006 259.828 228.03 259.806 227.049C260.787 227.026 261.763 227.004 262.744 226.982C262.767 227.963 262.789 228.939 262.812 229.92C261.83 229.942 260.855 229.965 259.873 229.987Z" fill="url(#paint50_linear_5_3729)"/>
<path d="M213.795 4.54119C213.76 3.02819 213.725 1.50936 213.691 -0.00364853C213.681 -0.435935 213.301 -0.798379 212.869 -0.788468C211.356 -0.753778 209.837 -0.718964 208.324 -0.684274C207.892 -0.674363 207.529 -0.294909 207.539 0.137378C207.574 1.65038 207.609 3.16924 207.644 4.68224C207.653 5.11453 208.033 5.47697 208.465 5.46706C209.978 5.43237 211.497 5.39754 213.01 5.36285C213.244 5.35749 213.423 5.26571 213.548 5.13425C213.557 5.12529 213.563 5.11931 213.571 5.11034C213.577 5.10437 213.585 5.0954 213.591 5.08943C213.717 4.95796 213.797 4.77785 213.795 4.54119ZM209.232 3.84509C209.209 2.86369 209.187 1.88811 209.164 0.906704C210.146 0.884203 211.121 0.861845 212.103 0.839343C212.125 1.82075 212.148 2.79631 212.17 3.77772C211.191 3.79723 210.21 3.81974 209.232 3.84509Z" fill="url(#paint51_linear_5_3729)"/>
<path d="M191.076 5.0627C191.041 3.54969 191.007 2.03084 190.972 0.517836C190.962 0.0855491 190.583 -0.276895 190.15 -0.266983C188.637 -0.232294 187.118 -0.197461 185.605 -0.162772C185.173 -0.15286 184.811 0.226593 184.821 0.65888C184.855 2.17188 184.89 3.69072 184.925 5.20372C184.935 5.63601 185.314 5.99845 185.746 5.98854C187.259 5.95385 188.778 5.91904 190.291 5.88435C190.525 5.87899 190.704 5.78722 190.83 5.65575C190.838 5.64679 190.844 5.64081 190.852 5.63185C190.858 5.62587 190.867 5.6169 190.872 5.61093C190.998 5.47946 191.079 5.29935 191.076 5.0627ZM186.513 4.36658C186.49 3.38517 186.468 2.40961 186.446 1.42821C187.427 1.40571 188.403 1.38333 189.384 1.36083C189.406 2.34224 189.429 3.31781 189.451 4.29922C188.473 4.31873 187.491 4.34122 186.513 4.36658Z" fill="url(#paint52_linear_5_3729)"/>
<path d="M168.355 5.58321C168.321 4.0702 168.286 2.55135 168.251 1.03834C168.241 0.606057 167.862 0.243613 167.43 0.253524C165.917 0.288214 164.398 0.323047 162.885 0.357736C162.452 0.367648 162.09 0.747101 162.1 1.17939C162.135 2.69239 162.169 4.21123 162.204 5.72423C162.214 6.15652 162.593 6.51896 163.026 6.50905C164.539 6.47436 166.058 6.43955 167.571 6.40486C167.804 6.3995 167.983 6.30772 168.109 6.17626C168.117 6.1673 168.123 6.16132 168.132 6.15235C168.137 6.14638 168.146 6.13741 168.152 6.13144C168.274 6.00296 168.358 5.81986 168.355 5.58321ZM163.789 4.88423C163.767 3.90282 163.744 2.92727 163.722 1.94586C164.703 1.92336 165.679 1.90098 166.66 1.87848C166.683 2.85989 166.705 3.83546 166.728 4.81687C165.752 4.83924 164.771 4.86173 163.789 4.88423Z" fill="url(#paint53_linear_5_3729)"/>
<path d="M191.596 27.7807C191.561 26.2677 191.526 24.7489 191.491 23.2359C191.482 22.8036 191.102 22.4411 190.67 22.451C189.157 22.4857 187.638 22.5206 186.125 22.5552C185.693 22.5652 185.33 22.9446 185.34 23.3769C185.375 24.8899 185.41 26.4087 185.444 27.9217C185.454 28.354 185.834 28.7165 186.266 28.7066C187.779 28.6719 189.298 28.6371 190.811 28.6024C191.044 28.597 191.224 28.5052 191.349 28.3738C191.358 28.3648 191.363 28.3588 191.372 28.3499C191.378 28.3439 191.386 28.3349 191.392 28.3289C191.515 28.2005 191.598 28.0174 191.596 27.7807ZM187.032 27.0846C187.01 26.1032 186.988 25.1276 186.965 24.1462C187.946 24.1237 188.922 24.1013 189.903 24.0788C189.926 25.0603 189.948 26.0358 189.971 27.0172C188.992 27.0367 188.011 27.0592 187.032 27.0846Z" fill="url(#paint54_linear_5_3729)"/>
<path d="M145.639 6.10369C145.604 4.59069 145.569 3.07186 145.534 1.55885C145.525 1.12656 145.145 0.764121 144.713 0.774032C143.2 0.808722 141.681 0.843536 140.168 0.878226C139.736 0.888137 139.373 1.26759 139.383 1.69988C139.418 3.21288 139.453 4.73174 139.487 6.24474C139.497 6.67703 139.877 7.03947 140.309 7.02956C141.822 6.99487 143.341 6.96004 144.854 6.92535C145.087 6.91999 145.267 6.82821 145.392 6.69675C145.401 6.68779 145.406 6.68182 145.415 6.67286C145.421 6.66689 145.429 6.65792 145.435 6.65194C145.558 6.52347 145.641 6.34035 145.639 6.10369ZM141.072 5.40474C141.05 4.42333 141.028 3.44776 141.005 2.46635C141.986 2.44385 142.962 2.42149 143.943 2.39899C143.966 3.38039 143.988 4.35595 144.011 5.33736C143.032 5.36271 142.054 5.38224 141.072 5.40474Z" fill="url(#paint55_linear_5_3729)"/>
<path d="M168.877 28.3019C168.842 26.7889 168.807 25.2701 168.773 23.7571C168.763 23.3248 168.383 22.9624 167.951 22.9723C166.438 23.007 164.919 23.0418 163.406 23.0765C162.974 23.0864 162.611 23.4658 162.621 23.8981C162.656 25.4111 162.691 26.93 162.726 28.443C162.735 28.8753 163.115 29.2377 163.547 29.2278C165.06 29.1931 166.579 29.1583 168.092 29.1236C168.326 29.1182 168.505 29.0265 168.63 28.895C168.639 28.886 168.645 28.8801 168.653 28.8711C168.659 28.8651 168.667 28.8562 168.673 28.8502C168.796 28.7217 168.879 28.5386 168.877 28.3019ZM164.314 27.6058C164.291 26.6244 164.269 25.6489 164.246 24.6674C165.228 24.6449 166.203 24.6226 167.185 24.6001C167.207 25.5815 167.23 26.557 167.252 27.5385C166.271 27.561 165.292 27.5805 164.314 27.6058Z" fill="url(#paint56_linear_5_3729)"/>
<path d="M122.92 6.62372C122.885 5.11071 122.85 3.59187 122.816 2.07887C122.806 1.64658 122.426 1.28414 121.994 1.29405C120.481 1.32874 118.962 1.36356 117.449 1.39825C117.017 1.40816 116.654 1.78761 116.664 2.2199C116.699 3.7329 116.734 5.25175 116.769 6.76476C116.778 7.19705 117.158 7.55949 117.59 7.54958C119.103 7.51489 120.622 7.48006 122.135 7.44537C122.369 7.44001 122.548 7.34824 122.673 7.21677C122.682 7.20781 122.688 7.20183 122.696 7.19287C122.702 7.18689 122.71 7.17792 122.716 7.17195C122.839 7.04347 122.922 6.86037 122.92 6.62372ZM118.354 5.92476C118.331 4.94335 118.309 3.96778 118.286 2.98637C119.268 2.96387 120.243 2.94151 121.225 2.91901C121.247 3.90042 121.27 4.87597 121.292 5.85738C120.314 5.88274 119.335 5.90226 118.354 5.92476Z" fill="url(#paint57_linear_5_3729)"/>
<path d="M146.16 28.8222C146.125 27.3092 146.091 25.7904 146.056 24.2774C146.046 23.8451 145.667 23.4826 145.234 23.4925C143.721 23.5272 142.202 23.562 140.689 23.5967C140.257 23.6066 139.895 23.9861 139.905 24.4184C139.939 25.9314 139.974 27.4502 140.009 28.9632C140.019 29.3955 140.398 29.758 140.83 29.7481C142.343 29.7134 143.862 29.6785 145.375 29.6439C145.609 29.6385 145.788 29.5467 145.914 29.4153C145.922 29.4063 145.928 29.4003 145.936 29.3913C145.942 29.3854 145.951 29.3764 145.956 29.3704C146.079 29.242 146.163 29.0589 146.16 28.8222ZM141.594 28.1232C141.571 27.1418 141.549 26.1663 141.527 25.1849C142.508 25.1624 143.484 25.14 144.465 25.1175C144.487 26.0989 144.51 27.0745 144.532 28.0559C143.554 28.0812 142.575 28.1007 141.594 28.1232Z" fill="url(#paint58_linear_5_3729)"/>
<path d="M169.398 51.0197C169.364 49.5067 169.329 47.9879 169.294 46.4749C169.284 46.0426 168.905 45.6801 168.473 45.69C166.96 45.7247 165.441 45.7596 163.928 45.7942C163.495 45.8042 163.133 46.1836 163.143 46.6159C163.178 48.1289 163.212 49.6478 163.247 51.1608C163.257 51.593 163.636 51.9555 164.069 51.9456C165.582 51.9109 167.101 51.8761 168.614 51.8414C168.847 51.836 169.026 51.7442 169.152 51.6128C169.16 51.6038 169.166 51.5978 169.175 51.5889C169.18 51.5829 169.189 51.5739 169.195 51.5679C169.317 51.4395 169.401 51.2564 169.398 51.0197ZM164.835 50.3236C164.813 49.3422 164.79 48.3666 164.768 47.3852C165.749 47.3627 166.725 47.3404 167.706 47.3179C167.729 48.2993 167.751 49.2748 167.774 50.2562C166.792 50.2787 165.814 50.2983 164.835 50.3236Z" fill="url(#paint59_linear_5_3729)"/>
<path d="M100.197 7.14839C100.162 5.63539 100.128 4.11653 100.093 2.60353C100.083 2.17124 99.7037 1.8088 99.2714 1.81871C97.7584 1.8534 96.2395 1.88823 94.7265 1.92292C94.2942 1.93283 93.9318 2.31229 93.9417 2.74457C93.9764 4.25758 94.0112 5.77641 94.0459 7.28942C94.0558 7.7217 94.4352 8.08415 94.8675 8.07424C96.3805 8.03955 97.8993 8.00474 99.4123 7.97005C99.646 7.96469 99.8251 7.87291 99.9507 7.74145C99.9592 7.73249 99.9649 7.72651 99.9735 7.71754C99.9792 7.71157 99.9878 7.7026 99.9935 7.69663C100.119 7.56516 100.203 7.38206 100.197 7.14839ZM95.6339 6.44643C95.6114 5.46502 95.589 4.48946 95.5665 3.50806C96.5479 3.48556 97.5235 3.46318 98.5049 3.44068C98.5274 4.42209 98.5497 5.39766 98.5722 6.37907C97.5938 6.40442 96.6153 6.42393 95.6339 6.44643Z" fill="url(#paint60_linear_5_3729)"/>
<path d="M123.437 29.3459C123.403 27.8329 123.368 26.314 123.333 24.801C123.323 24.3688 122.944 24.0063 122.512 24.0162C120.999 24.0509 119.48 24.0857 117.967 24.1204C117.534 24.1303 117.172 24.5098 117.182 24.9421C117.217 26.4551 117.251 27.9739 117.286 29.4869C117.296 29.9192 117.675 30.2817 118.108 30.2717C119.621 30.2371 121.14 30.2022 122.653 30.1676C122.886 30.1622 123.065 30.0704 123.191 29.939C123.199 29.93 123.205 29.924 123.214 29.915C123.219 29.9091 123.228 29.9001 123.234 29.8941C123.359 29.7627 123.443 29.5796 123.437 29.3459ZM118.874 28.6439C118.852 27.6625 118.829 26.687 118.807 25.7056C119.788 25.6831 120.764 25.6607 121.745 25.6382C121.768 26.6196 121.79 27.5952 121.812 28.5766C120.834 28.6019 119.855 28.6214 118.874 28.6439Z" fill="url(#paint61_linear_5_3729)"/>
<path d="M146.676 51.5441C146.641 50.0311 146.606 48.5123 146.572 46.9993C146.562 46.567 146.182 46.2046 145.75 46.2145C144.237 46.2492 142.718 46.284 141.205 46.3187C140.773 46.3286 140.41 46.708 140.42 47.1403C140.455 48.6533 140.49 50.1722 140.524 51.6852C140.534 52.1175 140.914 52.4799 141.346 52.47C142.859 52.4353 144.378 52.4005 145.891 52.3658C146.125 52.3604 146.304 52.2687 146.429 52.1372C146.438 52.1282 146.443 52.1223 146.452 52.1133C146.458 52.1073 146.466 52.0983 146.472 52.0924C146.598 51.9609 146.681 51.7778 146.676 51.5441ZM142.115 50.845C142.093 49.8636 142.071 48.8881 142.048 47.9067C143.029 47.8842 144.005 47.8618 144.986 47.8393C145.009 48.8207 145.031 49.7963 145.054 50.7777C144.072 50.8002 143.094 50.8197 142.115 50.845Z" fill="url(#paint62_linear_5_3729)"/>
<path d="M77.4823 7.67012C77.4477 6.15712 77.4129 4.63826 77.3782 3.12526C77.3683 2.69297 76.9888 2.33053 76.5565 2.34044C75.0435 2.37513 73.5247 2.40996 72.0117 2.44465C71.5794 2.45456 71.2169 2.83402 71.2269 3.2663C71.2615 4.77931 71.2963 6.29814 71.331 7.81115C71.3409 8.24343 71.7204 8.60588 72.1527 8.59596C73.6657 8.56127 75.1845 8.52646 76.6975 8.49177C76.9312 8.48641 77.1103 8.39462 77.2358 8.26316C77.2444 8.2542 77.2501 8.24823 77.2587 8.23927C77.2644 8.2333 77.2729 8.22433 77.2786 8.21835C77.4042 8.08689 77.4877 7.90379 77.4823 7.67012ZM72.919 6.96816C72.8965 5.98675 72.8742 5.01119 72.8517 4.02979C73.8331 4.00728 74.8086 3.98491 75.7901 3.96241C75.8125 4.94381 75.8349 5.91939 75.8574 6.9008C74.876 6.9233 73.9004 6.94566 72.919 6.96816Z" fill="url(#paint63_linear_5_3729)"/>
<path d="M100.719 29.8664C100.684 28.3534 100.649 26.8346 100.615 25.3215C100.605 24.8893 100.225 24.5268 99.7929 24.5367C98.2799 24.5714 96.761 24.6062 95.248 24.6409C94.8157 24.6509 94.4533 25.0303 94.4632 25.4626C94.4979 26.9756 94.5327 28.4944 94.5673 30.0074C94.5772 30.4397 94.9567 30.8022 95.389 30.7923C96.902 30.7576 98.4208 30.7228 99.9338 30.6881C100.167 30.6827 100.347 30.5909 100.472 30.4594C100.481 30.4505 100.486 30.4445 100.495 30.4356C100.501 30.4296 100.509 30.4206 100.515 30.4146C100.641 30.2832 100.724 30.1001 100.719 29.8664ZM96.1553 29.1644C96.1329 28.183 96.1105 27.2075 96.088 26.2261C97.0694 26.2036 98.045 26.1812 99.0264 26.1587C99.0489 27.1401 99.0712 28.1157 99.0937 29.0971C98.1153 29.1224 97.1367 29.1419 96.1553 29.1644Z" fill="url(#paint64_linear_5_3729)"/>
<path d="M123.959 52.0647C123.924 50.5516 123.889 49.0328 123.855 47.5198C123.845 47.0875 123.465 46.7251 123.033 46.735C121.52 46.7697 120.001 46.8045 118.488 46.8392C118.056 46.8491 117.694 47.2285 117.703 47.6608C117.738 49.1738 117.773 50.6927 117.808 52.2057C117.817 52.638 118.197 53.0004 118.629 52.9905C120.142 52.9558 121.661 52.921 123.174 52.8863C123.408 52.8809 123.587 52.7892 123.712 52.6577C123.721 52.6487 123.727 52.6428 123.735 52.6338C123.741 52.6278 123.749 52.6189 123.755 52.6129C123.881 52.4814 123.964 52.2983 123.959 52.0647ZM119.396 51.3627C119.373 50.3813 119.351 49.4057 119.328 48.4243C120.31 48.4018 121.285 48.3794 122.267 48.3569C122.289 49.3383 122.311 50.3139 122.334 51.2953C121.356 51.3207 120.377 51.3402 119.396 51.3627Z" fill="url(#paint65_linear_5_3729)"/>
<path d="M147.197 74.2624C147.162 72.7494 147.128 71.2305 147.093 69.7175C147.083 69.2853 146.704 68.9228 146.271 68.9327C144.758 68.9674 143.24 69.0022 141.727 69.0369C141.294 69.0468 140.932 69.4263 140.942 69.8586C140.976 71.3716 141.011 72.8904 141.046 74.4034C141.056 74.8357 141.435 75.1982 141.867 75.1882C143.381 75.1536 144.899 75.1187 146.412 75.0841C146.646 75.0787 146.825 74.9869 146.951 74.8554C146.959 74.8465 146.965 74.8405 146.973 74.8316C146.979 74.8256 146.988 74.8166 146.993 74.8106C147.119 74.6792 147.203 74.4961 147.197 74.2624ZM142.637 73.5633C142.614 72.5819 142.592 71.6063 142.569 70.6249C143.551 70.6024 144.526 70.58 145.508 70.5575C145.53 71.539 145.553 72.5145 145.575 73.4959C144.594 73.5184 143.615 73.5379 142.637 73.5633Z" fill="url(#paint66_linear_5_3729)"/>
<path d="M54.7616 8.18987C54.727 6.67687 54.6922 5.15804 54.6575 3.64503C54.6476 3.21275 54.2681 2.8503 53.8358 2.86021C52.3228 2.8949 50.804 2.92972 49.291 2.96441C48.8587 2.97432 48.4963 3.35377 48.5062 3.78606C48.5408 5.29906 48.5756 6.81792 48.6103 8.33092C48.6202 8.76321 48.9997 9.12565 49.432 9.11574C50.945 9.08105 52.4638 9.04622 53.9768 9.01153C54.2105 9.00617 54.3896 8.9144 54.5151 8.78293C54.5237 8.77397 54.5294 8.76799 54.538 8.75903C54.5437 8.75305 54.5522 8.7441 54.5579 8.73813C54.6835 8.60666 54.767 8.42354 54.7616 8.18987ZM50.1983 7.48793C50.1758 6.50652 50.1535 5.53095 50.131 4.54954C51.1124 4.52704 52.0879 4.50468 53.0693 4.48218C53.0918 5.46359 53.1142 6.43914 53.1367 7.42055C52.1553 7.44305 51.1797 7.46543 50.1983 7.48793Z" fill="url(#paint67_linear_5_3729)"/>
<path d="M78.0019 30.3876C77.9672 28.8746 77.9324 27.3558 77.8977 25.8428C77.8878 25.4105 77.5084 25.0481 77.0761 25.058C75.5631 25.0927 74.0442 25.1275 72.5312 25.1622C72.0989 25.1721 71.7365 25.5515 71.7464 25.9838C71.7811 27.4968 71.8159 29.0157 71.8505 30.5287C71.8604 30.961 72.2399 31.3234 72.6722 31.3135C74.1852 31.2788 75.704 31.244 77.217 31.2093C77.4507 31.2039 77.6298 31.1122 77.7554 30.9807C77.7639 30.9717 77.7696 30.9657 77.7782 30.9568C77.7839 30.9508 77.7925 30.9419 77.7982 30.9359C77.9237 30.8044 78.0072 30.6213 78.0019 30.3876ZM73.4385 29.6857C73.4161 28.7043 73.3937 27.7287 73.3712 26.7473C74.3526 26.7248 75.3282 26.7024 76.3096 26.6799C76.3321 27.6613 76.3544 28.6369 76.3769 29.6183C75.3985 29.6437 74.42 29.6632 73.4385 29.6857Z" fill="url(#paint68_linear_5_3729)"/>
<path d="M101.24 52.5851C101.205 51.0721 101.171 49.5533 101.136 48.0403C101.126 47.608 100.747 47.2456 100.314 47.2555C98.8013 47.2902 97.2825 47.325 95.7695 47.3597C95.3372 47.3696 94.9748 47.749 94.9847 48.1813C95.0194 49.6943 95.0542 51.2132 95.0888 52.7262C95.0987 53.1585 95.4782 53.5209 95.9105 53.511C97.4235 53.4763 98.9423 53.4415 100.455 53.4068C100.689 53.4014 100.868 53.3097 100.994 53.1782C101.002 53.1692 101.008 53.1633 101.016 53.1543C101.022 53.1483 101.031 53.1394 101.036 53.1334C101.162 53.0019 101.246 52.8188 101.24 52.5851ZM96.6768 51.8832C96.6543 50.9018 96.632 49.9262 96.6095 48.9448C97.5909 48.9223 98.5665 48.8999 99.5479 48.8774C99.5704 49.8588 99.5927 50.8344 99.6152 51.8158C98.6368 51.8412 97.6582 51.8607 96.6768 51.8832Z" fill="url(#paint69_linear_5_3729)"/>
<path d="M124.48 74.7836C124.446 73.2706 124.411 71.7518 124.376 70.2388C124.366 69.8065 123.987 69.4441 123.555 69.454C122.042 69.4887 120.523 69.5235 119.01 69.5582C118.577 69.5681 118.215 69.9475 118.225 70.3798C118.26 71.8928 118.294 73.4117 118.329 74.9247C118.339 75.357 118.718 75.7194 119.151 75.7095C120.664 75.6748 122.183 75.64 123.696 75.6053C123.929 75.5999 124.108 75.5081 124.234 75.3767C124.242 75.3677 124.248 75.3617 124.257 75.3528C124.262 75.3468 124.271 75.3379 124.277 75.3319C124.402 75.2004 124.486 75.0173 124.48 74.7836ZM119.92 74.0845C119.898 73.1031 119.875 72.1276 119.853 71.1461C120.834 71.1236 121.81 71.1013 122.791 71.0788C122.814 72.0602 122.836 73.0357 122.858 74.0172C121.877 74.0397 120.898 74.0592 119.92 74.0845Z" fill="url(#paint70_linear_5_3729)"/>
<path d="M32.039 8.70794C32.0043 7.19494 31.9695 5.6761 31.9348 4.1631C31.9249 3.73081 31.5455 3.36837 31.1132 3.37828C29.6002 3.41297 28.0813 3.44778 26.5683 3.48247C26.1361 3.49239 25.7736 3.87184 25.7835 4.30413C25.8182 5.81713 25.853 7.33598 25.8877 8.84899C25.8976 9.28127 26.277 9.64372 26.7093 9.63381C28.2223 9.59912 29.7412 9.56429 31.2542 9.5296C31.4878 9.52424 31.6669 9.43246 31.7925 9.301C31.801 9.29204 31.8068 9.28605 31.8153 9.27709C31.821 9.27112 31.8296 9.26215 31.8353 9.25617C31.9639 9.12756 32.0473 8.94447 32.039 8.70794ZM27.4786 8.00885C27.4561 7.02744 27.4338 6.05187 27.4113 5.07046C28.3927 5.04796 29.3683 5.0256 30.3497 5.0031C30.3722 5.98451 30.3945 6.96006 30.417 7.94147C29.4356 7.96397 28.46 7.98635 27.4786 8.00885Z" fill="url(#paint71_linear_5_3729)"/>
<path d="M55.2831 30.9094C55.2485 29.3964 55.2136 27.8775 55.179 26.3645C55.1691 25.9322 54.7896 25.5698 54.3573 25.5797C52.8443 25.6144 51.3255 25.6492 49.8125 25.6839C49.3802 25.6938 49.0177 26.0733 49.0277 26.5055C49.0623 28.0185 49.0971 29.5374 49.1318 31.0504C49.1417 31.4827 49.5211 31.8451 49.9534 31.8352C51.4664 31.8005 52.9853 31.7657 54.4983 31.731C54.732 31.7257 54.911 31.6339 55.0366 31.5024C55.0452 31.4935 55.0509 31.4875 55.0595 31.4785C55.0652 31.4725 55.0737 31.4636 55.0794 31.4576C55.205 31.3261 55.2885 31.143 55.2831 30.9094ZM50.7198 30.2074C50.6973 29.226 50.675 28.2504 50.6525 27.269C51.6339 27.2465 52.6094 27.2242 53.5908 27.2017C53.6133 28.1831 53.6357 29.1586 53.6582 30.14C52.6768 30.1625 51.7012 30.1849 50.7198 30.2074Z" fill="url(#paint72_linear_5_3729)"/>
<path d="M78.5195 53.1057C78.4848 51.5926 78.45 50.0738 78.4153 48.5608C78.4054 48.1285 78.0259 47.7661 77.5936 47.776C76.0806 47.8107 74.5618 47.8455 73.0488 47.8802C72.6165 47.8901 72.2541 48.2695 72.264 48.7018C72.2987 50.2148 72.3334 51.7337 72.3681 53.2467C72.378 53.679 72.7575 54.0414 73.1898 54.0315C74.7028 53.9968 76.2216 53.962 77.7346 53.9273C77.9683 53.9219 78.1474 53.8302 78.2729 53.6987C78.2815 53.6897 78.2872 53.6838 78.2958 53.6748C78.3015 53.6688 78.3101 53.6599 78.3158 53.6539C78.4413 53.5224 78.5248 53.3393 78.5195 53.1057ZM73.9561 52.4037C73.9336 51.4223 73.9113 50.4467 73.8888 49.4653C74.8702 49.4428 75.8458 49.4205 76.8272 49.398C76.8497 50.3794 76.872 51.3549 76.8945 52.3363C75.9161 52.3617 74.9375 52.3812 73.9561 52.4037Z" fill="url(#paint73_linear_5_3729)"/>
<path d="M101.76 75.3041C101.725 73.7911 101.69 72.2723 101.656 70.7593C101.646 70.327 101.266 69.9646 100.834 69.9745C99.3209 70.0092 97.802 70.044 96.289 70.0787C95.8568 70.0886 95.4943 70.468 95.5042 70.9003C95.5389 72.4133 95.5737 73.9322 95.6084 75.4452C95.6183 75.8775 95.9977 76.2399 96.43 76.23C97.943 76.1953 99.4619 76.1605 100.975 76.1258C101.209 76.1204 101.388 76.0287 101.513 75.8972C101.522 75.8882 101.527 75.8822 101.536 75.8733C101.542 75.8673 101.55 75.8583 101.556 75.8524C101.682 75.7209 101.765 75.5378 101.76 75.3041ZM97.1964 74.6022C97.1739 73.6208 97.1515 72.6452 97.129 71.6638C98.1104 71.6413 99.086 71.6189 100.067 71.5964C100.09 72.5778 100.112 73.5534 100.135 74.5348C99.1563 74.5602 98.1778 74.5797 97.1964 74.6022Z" fill="url(#paint74_linear_5_3729)"/>
<path d="M125 97.5016C124.965 95.9886 124.93 94.4698 124.896 92.9568C124.886 92.5245 124.506 92.1621 124.074 92.172C122.561 92.2067 121.042 92.2415 119.529 92.2762C119.097 92.2861 118.735 92.6655 118.744 93.0978C118.779 94.6108 118.814 96.1297 118.849 97.6427C118.858 98.075 119.238 98.4374 119.67 98.4275C121.183 98.3928 122.702 98.358 124.215 98.3233C124.449 98.3179 124.628 98.2262 124.753 98.0947C124.762 98.0857 124.768 98.0798 124.776 98.0708C124.782 98.0648 124.791 98.0559 124.796 98.0499C124.922 97.9184 125.005 97.7353 125 97.5016ZM120.44 96.8026C120.417 95.8211 120.395 94.8456 120.372 93.8642C121.354 93.8417 122.329 93.8193 123.311 93.7968C123.333 94.7782 123.355 95.7538 123.378 96.7352C122.397 96.7577 121.418 96.7772 120.44 96.8026Z" fill="url(#paint75_linear_5_3729)"/>
</g>
<rect x="446.723" y="339.488" width="226.607" height="284.947" rx="20" transform="rotate(135 446.723 339.488)" fill="#4EAF4E"/>
<defs>
<linearGradient id="paint0_linear_5_3729" x1="269.915" y1="-291.478" x2="286.414" y2="249.642" gradientUnits="userSpaceOnUse">
<stop stop-color="#BE965D"/>
<stop offset="0.2784" stop-color="#976F40"/>
<stop offset="0.4259" stop-color="#C99B61"/>
<stop offset="0.5584" stop-color="#F0BE7B"/>
<stop offset="0.6275" stop-color="#FFCB85"/>
<stop offset="0.7085" stop-color="#EEBC79"/>
<stop offset="0.8693" stop-color="#C0935B"/>
<stop offset="1" stop-color="#976F40"/>
</linearGradient>
<linearGradient id="paint1_linear_5_3729" x1="247.202" y1="-290.784" x2="263.701" y2="250.335" gradientUnits="userSpaceOnUse">
<stop stop-color="#BE965D"/>
<stop offset="0.2784" stop-color="#976F40"/>
<stop offset="0.4259" stop-color="#C99B61"/>
<stop offset="0.5584" stop-color="#F0BE7B"/>
<stop offset="0.6275" stop-color="#FFCB85"/>
<stop offset="0.7085" stop-color="#EEBC79"/>
<stop offset="0.8693" stop-color="#C0935B"/>
<stop offset="1" stop-color="#976F40"/>
</linearGradient>
<linearGradient id="paint2_linear_5_3729" x1="269.741" y1="-291.472" x2="286.24" y2="249.647" gradientUnits="userSpaceOnUse">
<stop stop-color="#BE965D"/>
<stop offset="0.2784" stop-color="#976F40"/>
<stop offset="0.4259" stop-color="#C99B61"/>
<stop offset="0.5584" stop-color="#F0BE7B"/>
<stop offset="0.6275" stop-color="#FFCB85"/>
<stop offset="0.7085" stop-color="#EEBC79"/>
<stop offset="0.8693" stop-color="#C0935B"/>
<stop offset="1" stop-color="#976F40"/>
</linearGradient>
<linearGradient id="paint3_linear_5_3729" x1="224.487" y1="-290.092" x2="240.986" y2="251.028" gradientUnits="userSpaceOnUse">
<stop stop-color="#BE965D"/>
<stop offset="0.2784" stop-color="#976F40"/>
<stop offset="0.4259" stop-color="#C99B61"/>
<stop offset="0.5584" stop-color="#F0BE7B"/>
<stop offset="0.6275" stop-color="#FFCB85"/>
<stop offset="0.7085" stop-color="#EEBC79"/>
<stop offset="0.8693" stop-color="#C0935B"/>
<stop offset="1" stop-color="#976F40"/>
</linearGradient>
<linearGradient id="paint4_linear_5_3729" x1="247.029" y1="-290.78" x2="263.528" y2="250.34" gradientUnits="userSpaceOnUse">
<stop stop-color="#BE965D"/>
<stop offset="0.2784" stop-color="#976F40"/>
<stop offset="0.4259" stop-color="#C99B61"/>
<stop offset="0.5584" stop-color="#F0BE7B"/>
<stop offset="0.6275" stop-color="#FFCB85"/>
<stop offset="0.7085" stop-color="#EEBC79"/>
<stop offset="0.8693" stop-color="#C0935B"/>
<stop offset="1" stop-color="#976F40"/>
</linearGradient>
<linearGradient id="paint5_linear_5_3729" x1="269.568" y1="-291.468" x2="286.066" y2="249.652" gradientUnits="userSpaceOnUse">
<stop stop-color="#BE965D"/>
<stop offset="0.2784" stop-color="#976F40"/>
<stop offset="0.4259" stop-color="#C99B61"/>
<stop offset="0.5584" stop-color="#F0BE7B"/>
<stop offset="0.6275" stop-color="#FFCB85"/>
<stop offset="0.7085" stop-color="#EEBC79"/>
<stop offset="0.8693" stop-color="#C0935B"/>
<stop offset="1" stop-color="#976F40"/>
</linearGradient>
<linearGradient id="paint6_linear_5_3729" x1="224.316" y1="-290.086" x2="240.815" y2="251.033" gradientUnits="userSpaceOnUse">
<stop stop-color="#BE965D"/>
<stop offset="0.2784" stop-color="#976F40"/>
<stop offset="0.4259" stop-color="#C99B61"/>
<stop offset="0.5584" stop-color="#F0BE7B"/>
<stop offset="0.6275" stop-color="#FFCB85"/>
<stop offset="0.7085" stop-color="#EEBC79"/>
<stop offset="0.8693" stop-color="#C0935B"/>
<stop offset="1" stop-color="#976F40"/>
</linearGradient>
<linearGradient id="paint7_linear_5_3729" x1="246.859" y1="-290.775" x2="263.358" y2="250.345" gradientUnits="userSpaceOnUse">
<stop stop-color="#BE965D"/>
<stop offset="0.2784" stop-color="#976F40"/>
<stop offset="0.4259" stop-color="#C99B61"/>
<stop offset="0.5584" stop-color="#F0BE7B"/>
<stop offset="0.6275" stop-color="#FFCB85"/>
<stop offset="0.7085" stop-color="#EEBC79"/>
<stop offset="0.8693" stop-color="#C0935B"/>
<stop offset="1" stop-color="#976F40"/>
</linearGradient>
<linearGradient id="paint8_linear_5_3729" x1="269.398" y1="-291.462" x2="285.897" y2="249.657" gradientUnits="userSpaceOnUse">
<stop stop-color="#BE965D"/>
<stop offset="0.2784" stop-color="#976F40"/>
<stop offset="0.4259" stop-color="#C99B61"/>
<stop offset="0.5584" stop-color="#F0BE7B"/>
<stop offset="0.6275" stop-color="#FFCB85"/>
<stop offset="0.7085" stop-color="#EEBC79"/>
<stop offset="0.8693" stop-color="#C0935B"/>
<stop offset="1" stop-color="#976F40"/>
</linearGradient>
<linearGradient id="paint9_linear_5_3729" x1="201.6" y1="-289.395" x2="218.099" y2="251.725" gradientUnits="userSpaceOnUse">
<stop stop-color="#BE965D"/>
<stop offset="0.2784" stop-color="#976F40"/>
<stop offset="0.4259" stop-color="#C99B61"/>
<stop offset="0.5584" stop-color="#F0BE7B"/>
<stop offset="0.6275" stop-color="#FFCB85"/>
<stop offset="0.7085" stop-color="#EEBC79"/>
<stop offset="0.8693" stop-color="#C0935B"/>
<stop offset="1" stop-color="#976F40"/>
</linearGradient>
<linearGradient id="paint10_linear_5_3729" x1="224.143" y1="-290.083" x2="240.642" y2="251.037" gradientUnits="userSpaceOnUse">
<stop stop-color="#BE965D"/>
<stop offset="0.2784" stop-color="#976F40"/>
<stop offset="0.4259" stop-color="#C99B61"/>
<stop offset="0.5584" stop-color="#F0BE7B"/>
<stop offset="0.6275" stop-color="#FFCB85"/>
<stop offset="0.7085" stop-color="#EEBC79"/>
<stop offset="0.8693" stop-color="#C0935B"/>
<stop offset="1" stop-color="#976F40"/>
</linearGradient>
<linearGradient id="paint11_linear_5_3729" x1="246.685" y1="-290.771" x2="263.184" y2="250.35" gradientUnits="userSpaceOnUse">
<stop stop-color="#BE965D"/>
<stop offset="0.2784" stop-color="#976F40"/>
<stop offset="0.4259" stop-color="#C99B61"/>
<stop offset="0.5584" stop-color="#F0BE7B"/>
<stop offset="0.6275" stop-color="#FFCB85"/>
<stop offset="0.7085" stop-color="#EEBC79"/>
<stop offset="0.8693" stop-color="#C0935B"/>
<stop offset="1" stop-color="#976F40"/>
</linearGradient>
<linearGradient id="paint12_linear_5_3729" x1="269.227" y1="-291.457" x2="285.726" y2="249.663" gradientUnits="userSpaceOnUse">
<stop stop-color="#BE965D"/>
<stop offset="0.2784" stop-color="#976F40"/>
<stop offset="0.4259" stop-color="#C99B61"/>
<stop offset="0.5584" stop-color="#F0BE7B"/>
<stop offset="0.6275" stop-color="#FFCB85"/>
<stop offset="0.7085" stop-color="#EEBC79"/>
<stop offset="0.8693" stop-color="#C0935B"/>
<stop offset="1" stop-color="#976F40"/>
</linearGradient>
<linearGradient id="paint13_linear_5_3729" x1="201.431" y1="-289.389" x2="217.93" y2="251.731" gradientUnits="userSpaceOnUse">
<stop stop-color="#BE965D"/>
<stop offset="0.2784" stop-color="#976F40"/>
<stop offset="0.4259" stop-color="#C99B61"/>
<stop offset="0.5584" stop-color="#F0BE7B"/>
<stop offset="0.6275" stop-color="#FFCB85"/>
<stop offset="0.7085" stop-color="#EEBC79"/>
<stop offset="0.8693" stop-color="#C0935B"/>
<stop offset="1" stop-color="#976F40"/>
</linearGradient>
<linearGradient id="paint14_linear_5_3729" x1="223.972" y1="-290.077" x2="240.471" y2="251.042" gradientUnits="userSpaceOnUse">
<stop stop-color="#BE965D"/>
<stop offset="0.2784" stop-color="#976F40"/>
<stop offset="0.4259" stop-color="#C99B61"/>
<stop offset="0.5584" stop-color="#F0BE7B"/>
<stop offset="0.6275" stop-color="#FFCB85"/>
<stop offset="0.7085" stop-color="#EEBC79"/>
<stop offset="0.8693" stop-color="#C0935B"/>
<stop offset="1" stop-color="#976F40"/>
</linearGradient>
<linearGradient id="paint15_linear_5_3729" x1="246.515" y1="-290.764" x2="263.014" y2="250.356" gradientUnits="userSpaceOnUse">
<stop stop-color="#BE965D"/>
<stop offset="0.2784" stop-color="#976F40"/>
<stop offset="0.4259" stop-color="#C99B61"/>
<stop offset="0.5584" stop-color="#F0BE7B"/>
<stop offset="0.6275" stop-color="#FFCB85"/>
<stop offset="0.7085" stop-color="#EEBC79"/>
<stop offset="0.8693" stop-color="#C0935B"/>
<stop offset="1" stop-color="#976F40"/>
</linearGradient>
<linearGradient id="paint16_linear_5_3729" x1="269.056" y1="-291.451" x2="285.555" y2="249.669" gradientUnits="userSpaceOnUse">
<stop stop-color="#BE965D"/>
<stop offset="0.2784" stop-color="#976F40"/>
<stop offset="0.4259" stop-color="#C99B61"/>
<stop offset="0.5584" stop-color="#F0BE7B"/>
<stop offset="0.6275" stop-color="#FFCB85"/>
<stop offset="0.7085" stop-color="#EEBC79"/>
<stop offset="0.8693" stop-color="#C0935B"/>
<stop offset="1" stop-color="#976F40"/>
</linearGradient>
<linearGradient id="paint17_linear_5_3729" x1="178.718" y1="-288.698" x2="195.217" y2="252.423" gradientUnits="userSpaceOnUse">
<stop stop-color="#BE965D"/>
<stop offset="0.2784" stop-color="#976F40"/>
<stop offset="0.4259" stop-color="#C99B61"/>
<stop offset="0.5584" stop-color="#F0BE7B"/>
<stop offset="0.6275" stop-color="#FFCB85"/>
<stop offset="0.7085" stop-color="#EEBC79"/>
<stop offset="0.8693" stop-color="#C0935B"/>
<stop offset="1" stop-color="#976F40"/>
</linearGradient>
<linearGradient id="paint18_linear_5_3729" x1="201.256" y1="-289.385" x2="217.755" y2="251.735" gradientUnits="userSpaceOnUse">
<stop stop-color="#BE965D"/>
<stop offset="0.2784" stop-color="#976F40"/>
<stop offset="0.4259" stop-color="#C99B61"/>
<stop offset="0.5584" stop-color="#F0BE7B"/>
<stop offset="0.6275" stop-color="#FFCB85"/>
<stop offset="0.7085" stop-color="#EEBC79"/>
<stop offset="0.8693" stop-color="#C0935B"/>
<stop offset="1" stop-color="#976F40"/>
</linearGradient>
<linearGradient id="paint19_linear_5_3729" x1="223.799" y1="-290.073" x2="240.297" y2="251.048" gradientUnits="userSpaceOnUse">
<stop stop-color="#BE965D"/>
<stop offset="0.2784" stop-color="#976F40"/>
<stop offset="0.4259" stop-color="#C99B61"/>
<stop offset="0.5584" stop-color="#F0BE7B"/>
<stop offset="0.6275" stop-color="#FFCB85"/>
<stop offset="0.7085" stop-color="#EEBC79"/>
<stop offset="0.8693" stop-color="#C0935B"/>
<stop offset="1" stop-color="#976F40"/>
</linearGradient>
<linearGradient id="paint20_linear_5_3729" x1="246.342" y1="-290.759" x2="262.841" y2="250.361" gradientUnits="userSpaceOnUse">
<stop stop-color="#BE965D"/>
<stop offset="0.2784" stop-color="#976F40"/>
<stop offset="0.4259" stop-color="#C99B61"/>
<stop offset="0.5584" stop-color="#F0BE7B"/>
<stop offset="0.6275" stop-color="#FFCB85"/>
<stop offset="0.7085" stop-color="#EEBC79"/>
<stop offset="0.8693" stop-color="#C0935B"/>
<stop offset="1" stop-color="#976F40"/>
</linearGradient>
<linearGradient id="paint21_linear_5_3729" x1="268.883" y1="-291.447" x2="285.381" y2="249.673" gradientUnits="userSpaceOnUse">
<stop stop-color="#BE965D"/>
<stop offset="0.2784" stop-color="#976F40"/>
<stop offset="0.4259" stop-color="#C99B61"/>
<stop offset="0.5584" stop-color="#F0BE7B"/>
<stop offset="0.6275" stop-color="#FFCB85"/>
<stop offset="0.7085" stop-color="#EEBC79"/>
<stop offset="0.8693" stop-color="#C0935B"/>
<stop offset="1" stop-color="#976F40"/>
</linearGradient>
<linearGradient id="paint22_linear_5_3729" x1="178.709" y1="-289.035" x2="195.208" y2="252.084" gradientUnits="userSpaceOnUse">
<stop stop-color="#BE965D"/>
<stop offset="0.2784" stop-color="#976F40"/>
<stop offset="0.4259" stop-color="#C99B61"/>
<stop offset="0.5584" stop-color="#F0BE7B"/>
<stop offset="0.6275" stop-color="#FFCB85"/>
<stop offset="0.7085" stop-color="#EEBC79"/>
<stop offset="0.8693" stop-color="#C0935B"/>
<stop offset="1" stop-color="#976F40"/>
</linearGradient>
<linearGradient id="paint23_linear_5_3729" x1="201.086" y1="-289.379" x2="217.585" y2="251.74" gradientUnits="userSpaceOnUse">
<stop stop-color="#BE965D"/>
<stop offset="0.2784" stop-color="#976F40"/>
<stop offset="0.4259" stop-color="#C99B61"/>
<stop offset="0.5584" stop-color="#F0BE7B"/>
<stop offset="0.6275" stop-color="#FFCB85"/>
<stop offset="0.7085" stop-color="#EEBC79"/>
<stop offset="0.8693" stop-color="#C0935B"/>
<stop offset="1" stop-color="#976F40"/>
</linearGradient>
<linearGradient id="paint24_linear_5_3729" x1="223.629" y1="-290.066" x2="240.128" y2="251.053" gradientUnits="userSpaceOnUse">
<stop stop-color="#BE965D"/>
<stop offset="0.2784" stop-color="#976F40"/>
<stop offset="0.4259" stop-color="#C99B61"/>
<stop offset="0.5584" stop-color="#F0BE7B"/>
<stop offset="0.6275" stop-color="#FFCB85"/>
<stop offset="0.7085" stop-color="#EEBC79"/>
<stop offset="0.8693" stop-color="#C0935B"/>
<stop offset="1" stop-color="#976F40"/>
</linearGradient>
<linearGradient id="paint25_linear_5_3729" x1="246.172" y1="-290.753" x2="262.671" y2="250.366" gradientUnits="userSpaceOnUse">
<stop stop-color="#BE965D"/>
<stop offset="0.2784" stop-color="#976F40"/>
<stop offset="0.4259" stop-color="#C99B61"/>
<stop offset="0.5584" stop-color="#F0BE7B"/>
<stop offset="0.6275" stop-color="#FFCB85"/>
<stop offset="0.7085" stop-color="#EEBC79"/>
<stop offset="0.8693" stop-color="#C0935B"/>
<stop offset="1" stop-color="#976F40"/>
</linearGradient>
<linearGradient id="paint26_linear_5_3729" x1="268.713" y1="-291.441" x2="285.212" y2="249.678" gradientUnits="userSpaceOnUse">
<stop stop-color="#BE965D"/>
<stop offset="0.2784" stop-color="#976F40"/>
<stop offset="0.4259" stop-color="#C99B61"/>
<stop offset="0.5584" stop-color="#F0BE7B"/>
<stop offset="0.6275" stop-color="#FFCB85"/>
<stop offset="0.7085" stop-color="#EEBC79"/>
<stop offset="0.8693" stop-color="#C0935B"/>
<stop offset="1" stop-color="#976F40"/>
</linearGradient>
<linearGradient id="paint27_linear_5_3729" x1="155.832" y1="-287.999" x2="172.331" y2="253.121" gradientUnits="userSpaceOnUse">
<stop stop-color="#BE965D"/>
<stop offset="0.2784" stop-color="#976F40"/>
<stop offset="0.4259" stop-color="#C99B61"/>
<stop offset="0.5584" stop-color="#F0BE7B"/>
<stop offset="0.6275" stop-color="#FFCB85"/>
<stop offset="0.7085" stop-color="#EEBC79"/>
<stop offset="0.8693" stop-color="#C0935B"/>
<stop offset="1" stop-color="#976F40"/>
</linearGradient>
<linearGradient id="paint28_linear_5_3729" x1="178.375" y1="-288.687" x2="194.874" y2="252.433" gradientUnits="userSpaceOnUse">
<stop stop-color="#BE965D"/>
<stop offset="0.2784" stop-color="#976F40"/>
<stop offset="0.4259" stop-color="#C99B61"/>
<stop offset="0.5584" stop-color="#F0BE7B"/>
<stop offset="0.6275" stop-color="#FFCB85"/>
<stop offset="0.7085" stop-color="#EEBC79"/>
<stop offset="0.8693" stop-color="#C0935B"/>
<stop offset="1" stop-color="#976F40"/>
</linearGradient>
<linearGradient id="paint29_linear_5_3729" x1="200.913" y1="-289.375" x2="217.411" y2="251.746" gradientUnits="userSpaceOnUse">
<stop stop-color="#BE965D"/>
<stop offset="0.2784" stop-color="#976F40"/>
<stop offset="0.4259" stop-color="#C99B61"/>
<stop offset="0.5584" stop-color="#F0BE7B"/>
<stop offset="0.6275" stop-color="#FFCB85"/>
<stop offset="0.7085" stop-color="#EEBC79"/>
<stop offset="0.8693" stop-color="#C0935B"/>
<stop offset="1" stop-color="#976F40"/>
</linearGradient>
<linearGradient id="paint30_linear_5_3729" x1="223.457" y1="-290.061" x2="239.956" y2="251.059" gradientUnits="userSpaceOnUse">
<stop stop-color="#BE965D"/>
<stop offset="0.2784" stop-color="#976F40"/>
<stop offset="0.4259" stop-color="#C99B61"/>
<stop offset="0.5584" stop-color="#F0BE7B"/>
<stop offset="0.6275" stop-color="#FFCB85"/>
<stop offset="0.7085" stop-color="#EEBC79"/>
<stop offset="0.8693" stop-color="#C0935B"/>
<stop offset="1" stop-color="#976F40"/>
</linearGradient>
<linearGradient id="paint31_linear_5_3729" x1="245.997" y1="-290.75" x2="262.495" y2="250.371" gradientUnits="userSpaceOnUse">
<stop stop-color="#BE965D"/>
<stop offset="0.2784" stop-color="#976F40"/>
<stop offset="0.4259" stop-color="#C99B61"/>
<stop offset="0.5584" stop-color="#F0BE7B"/>
<stop offset="0.6275" stop-color="#FFCB85"/>
<stop offset="0.7085" stop-color="#EEBC79"/>
<stop offset="0.8693" stop-color="#C0935B"/>
<stop offset="1" stop-color="#976F40"/>
</linearGradient>
<linearGradient id="paint32_linear_5_3729" x1="268.539" y1="-291.437" x2="285.038" y2="249.683" gradientUnits="userSpaceOnUse">
<stop stop-color="#BE965D"/>
<stop offset="0.2784" stop-color="#976F40"/>
<stop offset="0.4259" stop-color="#C99B61"/>
<stop offset="0.5584" stop-color="#F0BE7B"/>
<stop offset="0.6275" stop-color="#FFCB85"/>
<stop offset="0.7085" stop-color="#EEBC79"/>
<stop offset="0.8693" stop-color="#C0935B"/>
<stop offset="1" stop-color="#976F40"/>
</linearGradient>
<linearGradient id="paint33_linear_5_3729" x1="155.661" y1="-287.994" x2="172.16" y2="253.127" gradientUnits="userSpaceOnUse">
<stop stop-color="#BE965D"/>
<stop offset="0.2784" stop-color="#976F40"/>
<stop offset="0.4259" stop-color="#C99B61"/>
<stop offset="0.5584" stop-color="#F0BE7B"/>
<stop offset="0.6275" stop-color="#FFCB85"/>
<stop offset="0.7085" stop-color="#EEBC79"/>
<stop offset="0.8693" stop-color="#C0935B"/>
<stop offset="1" stop-color="#976F40"/>
</linearGradient>
<linearGradient id="paint34_linear_5_3729" x1="178.202" y1="-288.681" x2="194.701" y2="252.439" gradientUnits="userSpaceOnUse">
<stop stop-color="#BE965D"/>
<stop offset="0.2784" stop-color="#976F40"/>
<stop offset="0.4259" stop-color="#C99B61"/>
<stop offset="0.5584" stop-color="#F0BE7B"/>
<stop offset="0.6275" stop-color="#FFCB85"/>
<stop offset="0.7085" stop-color="#EEBC79"/>
<stop offset="0.8693" stop-color="#C0935B"/>
<stop offset="1" stop-color="#976F40"/>
</linearGradient>
<linearGradient id="paint35_linear_5_3729" x1="200.743" y1="-289.369" x2="217.242" y2="251.752" gradientUnits="userSpaceOnUse">
<stop stop-color="#BE965D"/>
<stop offset="0.2784" stop-color="#976F40"/>
<stop offset="0.4259" stop-color="#C99B61"/>
<stop offset="0.5584" stop-color="#F0BE7B"/>
<stop offset="0.6275" stop-color="#FFCB85"/>
<stop offset="0.7085" stop-color="#EEBC79"/>
<stop offset="0.8693" stop-color="#C0935B"/>
<stop offset="1" stop-color="#976F40"/>
</linearGradient>
<linearGradient id="paint36_linear_5_3729" x1="223.286" y1="-290.056" x2="239.785" y2="251.065" gradientUnits="userSpaceOnUse">
<stop stop-color="#BE965D"/>
<stop offset="0.2784" stop-color="#976F40"/>
<stop offset="0.4259" stop-color="#C99B61"/>
<stop offset="0.5584" stop-color="#F0BE7B"/>
<stop offset="0.6275" stop-color="#FFCB85"/>
<stop offset="0.7085" stop-color="#EEBC79"/>
<stop offset="0.8693" stop-color="#C0935B"/>
<stop offset="1" stop-color="#976F40"/>
</linearGradient>
<linearGradient id="paint37_linear_5_3729" x1="245.827" y1="-290.744" x2="262.326" y2="250.377" gradientUnits="userSpaceOnUse">
<stop stop-color="#BE965D"/>
<stop offset="0.2784" stop-color="#976F40"/>
<stop offset="0.4259" stop-color="#C99B61"/>
<stop offset="0.5584" stop-color="#F0BE7B"/>
<stop offset="0.6275" stop-color="#FFCB85"/>
<stop offset="0.7085" stop-color="#EEBC79"/>
<stop offset="0.8693" stop-color="#C0935B"/>
<stop offset="1" stop-color="#976F40"/>
</linearGradient>
<linearGradient id="paint38_linear_5_3729" x1="268.368" y1="-291.431" x2="284.867" y2="249.689" gradientUnits="userSpaceOnUse">
<stop stop-color="#BE965D"/>
<stop offset="0.2784" stop-color="#976F40"/>
<stop offset="0.4259" stop-color="#C99B61"/>
<stop offset="0.5584" stop-color="#F0BE7B"/>
<stop offset="0.6275" stop-color="#FFCB85"/>
<stop offset="0.7085" stop-color="#EEBC79"/>
<stop offset="0.8693" stop-color="#C0935B"/>
<stop offset="1" stop-color="#976F40"/>
</linearGradient>
<linearGradient id="paint39_linear_5_3729" x1="132.945" y1="-287.302" x2="149.444" y2="253.818" gradientUnits="userSpaceOnUse">
<stop stop-color="#BE965D"/>
<stop offset="0.2784" stop-color="#976F40"/>
<stop offset="0.4259" stop-color="#C99B61"/>
<stop offset="0.5584" stop-color="#F0BE7B"/>
<stop offset="0.6275" stop-color="#FFCB85"/>
<stop offset="0.7085" stop-color="#EEBC79"/>
<stop offset="0.8693" stop-color="#C0935B"/>
<stop offset="1" stop-color="#976F40"/>
</linearGradient>
<linearGradient id="paint40_linear_5_3729" x1="155.488" y1="-287.99" x2="171.987" y2="253.131" gradientUnits="userSpaceOnUse">
<stop stop-color="#BE965D"/>
<stop offset="0.2784" stop-color="#976F40"/>
<stop offset="0.4259" stop-color="#C99B61"/>
<stop offset="0.5584" stop-color="#F0BE7B"/>
<stop offset="0.6275" stop-color="#FFCB85"/>
<stop offset="0.7085" stop-color="#EEBC79"/>
<stop offset="0.8693" stop-color="#C0935B"/>
<stop offset="1" stop-color="#976F40"/>
</linearGradient>
<linearGradient id="paint41_linear_5_3729" x1="178.03" y1="-288.678" x2="194.529" y2="252.443" gradientUnits="userSpaceOnUse">
<stop stop-color="#BE965D"/>
<stop offset="0.2784" stop-color="#976F40"/>
<stop offset="0.4259" stop-color="#C99B61"/>
<stop offset="0.5584" stop-color="#F0BE7B"/>
<stop offset="0.6275" stop-color="#FFCB85"/>
<stop offset="0.7085" stop-color="#EEBC79"/>
<stop offset="0.8693" stop-color="#C0935B"/>
<stop offset="1" stop-color="#976F40"/>
</linearGradient>
<linearGradient id="paint42_linear_5_3729" x1="200.572" y1="-289.364" x2="217.071" y2="251.757" gradientUnits="userSpaceOnUse">
<stop stop-color="#BE965D"/>
<stop offset="0.2784" stop-color="#976F40"/>
<stop offset="0.4259" stop-color="#C99B61"/>
<stop offset="0.5584" stop-color="#F0BE7B"/>
<stop offset="0.6275" stop-color="#FFCB85"/>
<stop offset="0.7085" stop-color="#EEBC79"/>
<stop offset="0.8693" stop-color="#C0935B"/>
<stop offset="1" stop-color="#976F40"/>
</linearGradient>
<linearGradient id="paint43_linear_5_3729" x1="223.113" y1="-290.053" x2="239.611" y2="251.069" gradientUnits="userSpaceOnUse">
<stop stop-color="#BE965D"/>
<stop offset="0.2784" stop-color="#976F40"/>
<stop offset="0.4259" stop-color="#C99B61"/>
<stop offset="0.5584" stop-color="#F0BE7B"/>
<stop offset="0.6275" stop-color="#FFCB85"/>
<stop offset="0.7085" stop-color="#EEBC79"/>
<stop offset="0.8693" stop-color="#C0935B"/>
<stop offset="1" stop-color="#976F40"/>
</linearGradient>
<linearGradient id="paint44_linear_5_3729" x1="245.654" y1="-290.74" x2="262.153" y2="250.381" gradientUnits="userSpaceOnUse">
<stop stop-color="#BE965D"/>
<stop offset="0.2784" stop-color="#976F40"/>
<stop offset="0.4259" stop-color="#C99B61"/>
<stop offset="0.5584" stop-color="#F0BE7B"/>
<stop offset="0.6275" stop-color="#FFCB85"/>
<stop offset="0.7085" stop-color="#EEBC79"/>
<stop offset="0.8693" stop-color="#C0935B"/>
<stop offset="1" stop-color="#976F40"/>
</linearGradient>
<linearGradient id="paint45_linear_5_3729" x1="132.774" y1="-287.296" x2="149.273" y2="253.825" gradientUnits="userSpaceOnUse">
<stop stop-color="#BE965D"/>
<stop offset="0.2784" stop-color="#976F40"/>
<stop offset="0.4259" stop-color="#C99B61"/>
<stop offset="0.5584" stop-color="#F0BE7B"/>
<stop offset="0.6275" stop-color="#FFCB85"/>
<stop offset="0.7085" stop-color="#EEBC79"/>
<stop offset="0.8693" stop-color="#C0935B"/>
<stop offset="1" stop-color="#976F40"/>
</linearGradient>
<linearGradient id="paint46_linear_5_3729" x1="155.317" y1="-287.984" x2="171.816" y2="253.137" gradientUnits="userSpaceOnUse">
<stop stop-color="#BE965D"/>
<stop offset="0.2784" stop-color="#976F40"/>
<stop offset="0.4259" stop-color="#C99B61"/>
<stop offset="0.5584" stop-color="#F0BE7B"/>
<stop offset="0.6275" stop-color="#FFCB85"/>
<stop offset="0.7085" stop-color="#EEBC79"/>
<stop offset="0.8693" stop-color="#C0935B"/>
<stop offset="1" stop-color="#976F40"/>
</linearGradient>
<linearGradient id="paint47_linear_5_3729" x1="177.86" y1="-288.671" x2="194.359" y2="252.449" gradientUnits="userSpaceOnUse">
<stop stop-color="#BE965D"/>
<stop offset="0.2784" stop-color="#976F40"/>
<stop offset="0.4259" stop-color="#C99B61"/>
<stop offset="0.5584" stop-color="#F0BE7B"/>
<stop offset="0.6275" stop-color="#FFCB85"/>
<stop offset="0.7085" stop-color="#EEBC79"/>
<stop offset="0.8693" stop-color="#C0935B"/>
<stop offset="1" stop-color="#976F40"/>
</linearGradient>
<linearGradient id="paint48_linear_5_3729" x1="200.399" y1="-289.358" x2="216.898" y2="251.763" gradientUnits="userSpaceOnUse">
<stop stop-color="#BE965D"/>
<stop offset="0.2784" stop-color="#976F40"/>
<stop offset="0.4259" stop-color="#C99B61"/>
<stop offset="0.5584" stop-color="#F0BE7B"/>
<stop offset="0.6275" stop-color="#FFCB85"/>
<stop offset="0.7085" stop-color="#EEBC79"/>
<stop offset="0.8693" stop-color="#C0935B"/>
<stop offset="1" stop-color="#976F40"/>
</linearGradient>
<linearGradient id="paint49_linear_5_3729" x1="222.942" y1="-290.045" x2="239.441" y2="251.075" gradientUnits="userSpaceOnUse">
<stop stop-color="#BE965D"/>
<stop offset="0.2784" stop-color="#976F40"/>
<stop offset="0.4259" stop-color="#C99B61"/>
<stop offset="0.5584" stop-color="#F0BE7B"/>
<stop offset="0.6275" stop-color="#FFCB85"/>
<stop offset="0.7085" stop-color="#EEBC79"/>
<stop offset="0.8693" stop-color="#C0935B"/>
<stop offset="1" stop-color="#976F40"/>
</linearGradient>
<linearGradient id="paint50_linear_5_3729" x1="245.484" y1="-290.734" x2="261.982" y2="250.387" gradientUnits="userSpaceOnUse">
<stop stop-color="#BE965D"/>
<stop offset="0.2784" stop-color="#976F40"/>
<stop offset="0.4259" stop-color="#C99B61"/>
<stop offset="0.5584" stop-color="#F0BE7B"/>
<stop offset="0.6275" stop-color="#FFCB85"/>
<stop offset="0.7085" stop-color="#EEBC79"/>
<stop offset="0.8693" stop-color="#C0935B"/>
<stop offset="1" stop-color="#976F40"/>
</linearGradient>
<linearGradient id="paint51_linear_5_3729" x1="201.775" y1="-289.4" x2="218.274" y2="251.719" gradientUnits="userSpaceOnUse">
<stop stop-color="#BE965D"/>
<stop offset="0.2784" stop-color="#976F40"/>
<stop offset="0.4259" stop-color="#C99B61"/>
<stop offset="0.5584" stop-color="#F0BE7B"/>
<stop offset="0.6275" stop-color="#FFCB85"/>
<stop offset="0.7085" stop-color="#EEBC79"/>
<stop offset="0.8693" stop-color="#C0935B"/>
<stop offset="1" stop-color="#976F40"/>
</linearGradient>
<linearGradient id="paint52_linear_5_3729" x1="179.061" y1="-288.707" x2="195.56" y2="252.412" gradientUnits="userSpaceOnUse">
<stop stop-color="#BE965D"/>
<stop offset="0.2784" stop-color="#976F40"/>
<stop offset="0.4259" stop-color="#C99B61"/>
<stop offset="0.5584" stop-color="#F0BE7B"/>
<stop offset="0.6275" stop-color="#FFCB85"/>
<stop offset="0.7085" stop-color="#EEBC79"/>
<stop offset="0.8693" stop-color="#C0935B"/>
<stop offset="1" stop-color="#976F40"/>
</linearGradient>
<linearGradient id="paint53_linear_5_3729" x1="156.345" y1="-288.015" x2="172.844" y2="253.104" gradientUnits="userSpaceOnUse">
<stop stop-color="#BE965D"/>
<stop offset="0.2784" stop-color="#976F40"/>
<stop offset="0.4259" stop-color="#C99B61"/>
<stop offset="0.5584" stop-color="#F0BE7B"/>
<stop offset="0.6275" stop-color="#FFCB85"/>
<stop offset="0.7085" stop-color="#EEBC79"/>
<stop offset="0.8693" stop-color="#C0935B"/>
<stop offset="1" stop-color="#976F40"/>
</linearGradient>
<linearGradient id="paint54_linear_5_3729" x1="178.888" y1="-288.702" x2="195.387" y2="252.417" gradientUnits="userSpaceOnUse">
<stop stop-color="#BE965D"/>
<stop offset="0.2784" stop-color="#976F40"/>
<stop offset="0.4259" stop-color="#C99B61"/>
<stop offset="0.5584" stop-color="#F0BE7B"/>
<stop offset="0.6275" stop-color="#FFCB85"/>
<stop offset="0.7085" stop-color="#EEBC79"/>
<stop offset="0.8693" stop-color="#C0935B"/>
<stop offset="1" stop-color="#976F40"/>
</linearGradient>
<linearGradient id="paint55_linear_5_3729" x1="133.633" y1="-287.323" x2="150.132" y2="253.797" gradientUnits="userSpaceOnUse">
<stop stop-color="#BE965D"/>
<stop offset="0.2784" stop-color="#976F40"/>
<stop offset="0.4259" stop-color="#C99B61"/>
<stop offset="0.5584" stop-color="#F0BE7B"/>
<stop offset="0.6275" stop-color="#FFCB85"/>
<stop offset="0.7085" stop-color="#EEBC79"/>
<stop offset="0.8693" stop-color="#C0935B"/>
<stop offset="1" stop-color="#976F40"/>
</linearGradient>
<linearGradient id="paint56_linear_5_3729" x1="156.174" y1="-288.01" x2="172.673" y2="253.11" gradientUnits="userSpaceOnUse">
<stop stop-color="#BE965D"/>
<stop offset="0.2784" stop-color="#976F40"/>
<stop offset="0.4259" stop-color="#C99B61"/>
<stop offset="0.5584" stop-color="#F0BE7B"/>
<stop offset="0.6275" stop-color="#FFCB85"/>
<stop offset="0.7085" stop-color="#EEBC79"/>
<stop offset="0.8693" stop-color="#C0935B"/>
<stop offset="1" stop-color="#976F40"/>
</linearGradient>
<linearGradient id="paint57_linear_5_3729" x1="110.919" y1="-286.631" x2="127.418" y2="254.488" gradientUnits="userSpaceOnUse">
<stop stop-color="#BE965D"/>
<stop offset="0.2784" stop-color="#976F40"/>
<stop offset="0.4259" stop-color="#C99B61"/>
<stop offset="0.5584" stop-color="#F0BE7B"/>
<stop offset="0.6275" stop-color="#FFCB85"/>
<stop offset="0.7085" stop-color="#EEBC79"/>
<stop offset="0.8693" stop-color="#C0935B"/>
<stop offset="1" stop-color="#976F40"/>
</linearGradient>
<linearGradient id="paint58_linear_5_3729" x1="133.462" y1="-287.318" x2="149.961" y2="253.802" gradientUnits="userSpaceOnUse">
<stop stop-color="#BE965D"/>
<stop offset="0.2784" stop-color="#976F40"/>
<stop offset="0.4259" stop-color="#C99B61"/>
<stop offset="0.5584" stop-color="#F0BE7B"/>
<stop offset="0.6275" stop-color="#FFCB85"/>
<stop offset="0.7085" stop-color="#EEBC79"/>
<stop offset="0.8693" stop-color="#C0935B"/>
<stop offset="1" stop-color="#976F40"/>
</linearGradient>
<linearGradient id="paint59_linear_5_3729" x1="156.003" y1="-288.005" x2="172.502" y2="253.114" gradientUnits="userSpaceOnUse">
<stop stop-color="#BE965D"/>
<stop offset="0.2784" stop-color="#976F40"/>
<stop offset="0.4259" stop-color="#C99B61"/>
<stop offset="0.5584" stop-color="#F0BE7B"/>
<stop offset="0.6275" stop-color="#FFCB85"/>
<stop offset="0.7085" stop-color="#EEBC79"/>
<stop offset="0.8693" stop-color="#C0935B"/>
<stop offset="1" stop-color="#976F40"/>
</linearGradient>
<linearGradient id="paint60_linear_5_3729" x1="88.2044" y1="-285.938" x2="104.703" y2="255.182" gradientUnits="userSpaceOnUse">
<stop stop-color="#BE965D"/>
<stop offset="0.2784" stop-color="#976F40"/>
<stop offset="0.4259" stop-color="#C99B61"/>
<stop offset="0.5584" stop-color="#F0BE7B"/>
<stop offset="0.6275" stop-color="#FFCB85"/>
<stop offset="0.7085" stop-color="#EEBC79"/>
<stop offset="0.8693" stop-color="#C0935B"/>
<stop offset="1" stop-color="#976F40"/>
</linearGradient>
<linearGradient id="paint61_linear_5_3729" x1="110.748" y1="-286.625" x2="127.246" y2="254.495" gradientUnits="userSpaceOnUse">
<stop stop-color="#BE965D"/>
<stop offset="0.2784" stop-color="#976F40"/>
<stop offset="0.4259" stop-color="#C99B61"/>
<stop offset="0.5584" stop-color="#F0BE7B"/>
<stop offset="0.6275" stop-color="#FFCB85"/>
<stop offset="0.7085" stop-color="#EEBC79"/>
<stop offset="0.8693" stop-color="#C0935B"/>
<stop offset="1" stop-color="#976F40"/>
</linearGradient>
<linearGradient id="paint62_linear_5_3729" x1="133.289" y1="-287.312" x2="149.788" y2="253.808" gradientUnits="userSpaceOnUse">
<stop stop-color="#BE965D"/>
<stop offset="0.2784" stop-color="#976F40"/>
<stop offset="0.4259" stop-color="#C99B61"/>
<stop offset="0.5584" stop-color="#F0BE7B"/>
<stop offset="0.6275" stop-color="#FFCB85"/>
<stop offset="0.7085" stop-color="#EEBC79"/>
<stop offset="0.8693" stop-color="#C0935B"/>
<stop offset="1" stop-color="#976F40"/>
</linearGradient>
<linearGradient id="paint63_linear_5_3729" x1="65.4945" y1="-285.245" x2="81.9933" y2="255.876" gradientUnits="userSpaceOnUse">
<stop stop-color="#BE965D"/>
<stop offset="0.2784" stop-color="#976F40"/>
<stop offset="0.4259" stop-color="#C99B61"/>
<stop offset="0.5584" stop-color="#F0BE7B"/>
<stop offset="0.6275" stop-color="#FFCB85"/>
<stop offset="0.7085" stop-color="#EEBC79"/>
<stop offset="0.8693" stop-color="#C0935B"/>
<stop offset="1" stop-color="#976F40"/>
</linearGradient>
<linearGradient id="paint64_linear_5_3729" x1="88.0336" y1="-285.934" x2="104.532" y2="255.187" gradientUnits="userSpaceOnUse">
<stop stop-color="#BE965D"/>
<stop offset="0.2784" stop-color="#976F40"/>
<stop offset="0.4259" stop-color="#C99B61"/>
<stop offset="0.5584" stop-color="#F0BE7B"/>
<stop offset="0.6275" stop-color="#FFCB85"/>
<stop offset="0.7085" stop-color="#EEBC79"/>
<stop offset="0.8693" stop-color="#C0935B"/>
<stop offset="1" stop-color="#976F40"/>
</linearGradient>
<linearGradient id="paint65_linear_5_3729" x1="110.577" y1="-286.62" x2="127.076" y2="254.501" gradientUnits="userSpaceOnUse">
<stop stop-color="#BE965D"/>
<stop offset="0.2784" stop-color="#976F40"/>
<stop offset="0.4259" stop-color="#C99B61"/>
<stop offset="0.5584" stop-color="#F0BE7B"/>
<stop offset="0.6275" stop-color="#FFCB85"/>
<stop offset="0.7085" stop-color="#EEBC79"/>
<stop offset="0.8693" stop-color="#C0935B"/>
<stop offset="1" stop-color="#976F40"/>
</linearGradient>
<linearGradient id="paint66_linear_5_3729" x1="133.118" y1="-287.307" x2="149.617" y2="253.813" gradientUnits="userSpaceOnUse">
<stop stop-color="#BE965D"/>
<stop offset="0.2784" stop-color="#976F40"/>
<stop offset="0.4259" stop-color="#C99B61"/>
<stop offset="0.5584" stop-color="#F0BE7B"/>
<stop offset="0.6275" stop-color="#FFCB85"/>
<stop offset="0.7085" stop-color="#EEBC79"/>
<stop offset="0.8693" stop-color="#C0935B"/>
<stop offset="1" stop-color="#976F40"/>
</linearGradient>
<linearGradient id="paint67_linear_5_3729" x1="42.7788" y1="-284.554" x2="59.2776" y2="256.567" gradientUnits="userSpaceOnUse">
<stop stop-color="#BE965D"/>
<stop offset="0.2784" stop-color="#976F40"/>
<stop offset="0.4259" stop-color="#C99B61"/>
<stop offset="0.5584" stop-color="#F0BE7B"/>
<stop offset="0.6275" stop-color="#FFCB85"/>
<stop offset="0.7085" stop-color="#EEBC79"/>
<stop offset="0.8693" stop-color="#C0935B"/>
<stop offset="1" stop-color="#976F40"/>
</linearGradient>
<linearGradient id="paint68_linear_5_3729" x1="65.3217" y1="-285.241" x2="81.8205" y2="255.88" gradientUnits="userSpaceOnUse">
<stop stop-color="#BE965D"/>
<stop offset="0.2784" stop-color="#976F40"/>
<stop offset="0.4259" stop-color="#C99B61"/>
<stop offset="0.5584" stop-color="#F0BE7B"/>
<stop offset="0.6275" stop-color="#FFCB85"/>
<stop offset="0.7085" stop-color="#EEBC79"/>
<stop offset="0.8693" stop-color="#C0935B"/>
<stop offset="1" stop-color="#976F40"/>
</linearGradient>
<linearGradient id="paint69_linear_5_3729" x1="87.8629" y1="-285.928" x2="104.362" y2="255.192" gradientUnits="userSpaceOnUse">
<stop stop-color="#BE965D"/>
<stop offset="0.2784" stop-color="#976F40"/>
<stop offset="0.4259" stop-color="#C99B61"/>
<stop offset="0.5584" stop-color="#F0BE7B"/>
<stop offset="0.6275" stop-color="#FFCB85"/>
<stop offset="0.7085" stop-color="#EEBC79"/>
<stop offset="0.8693" stop-color="#C0935B"/>
<stop offset="1" stop-color="#976F40"/>
</linearGradient>
<linearGradient id="paint70_linear_5_3729" x1="110.406" y1="-286.615" x2="126.905" y2="254.506" gradientUnits="userSpaceOnUse">
<stop stop-color="#BE965D"/>
<stop offset="0.2784" stop-color="#976F40"/>
<stop offset="0.4259" stop-color="#C99B61"/>
<stop offset="0.5584" stop-color="#F0BE7B"/>
<stop offset="0.6275" stop-color="#FFCB85"/>
<stop offset="0.7085" stop-color="#EEBC79"/>
<stop offset="0.8693" stop-color="#C0935B"/>
<stop offset="1" stop-color="#976F40"/>
</linearGradient>
<linearGradient id="paint71_linear_5_3729" x1="20.0641" y1="-283.861" x2="36.563" y2="257.259" gradientUnits="userSpaceOnUse">
<stop stop-color="#BE965D"/>
<stop offset="0.2784" stop-color="#976F40"/>
<stop offset="0.4259" stop-color="#C99B61"/>
<stop offset="0.5584" stop-color="#F0BE7B"/>
<stop offset="0.6275" stop-color="#FFCB85"/>
<stop offset="0.7085" stop-color="#EEBC79"/>
<stop offset="0.8693" stop-color="#C0935B"/>
<stop offset="1" stop-color="#976F40"/>
</linearGradient>
<linearGradient id="paint72_linear_5_3729" x1="42.608" y1="-284.547" x2="59.1067" y2="256.574" gradientUnits="userSpaceOnUse">
<stop stop-color="#BE965D"/>
<stop offset="0.2784" stop-color="#976F40"/>
<stop offset="0.4259" stop-color="#C99B61"/>
<stop offset="0.5584" stop-color="#F0BE7B"/>
<stop offset="0.6275" stop-color="#FFCB85"/>
<stop offset="0.7085" stop-color="#EEBC79"/>
<stop offset="0.8693" stop-color="#C0935B"/>
<stop offset="1" stop-color="#976F40"/>
</linearGradient>
<linearGradient id="paint73_linear_5_3729" x1="65.147" y1="-285.236" x2="81.6458" y2="255.885" gradientUnits="userSpaceOnUse">
<stop stop-color="#BE965D"/>
<stop offset="0.2784" stop-color="#976F40"/>
<stop offset="0.4259" stop-color="#C99B61"/>
<stop offset="0.5584" stop-color="#F0BE7B"/>
<stop offset="0.6275" stop-color="#FFCB85"/>
<stop offset="0.7085" stop-color="#EEBC79"/>
<stop offset="0.8693" stop-color="#C0935B"/>
<stop offset="1" stop-color="#976F40"/>
</linearGradient>
<linearGradient id="paint74_linear_5_3729" x1="87.6902" y1="-285.922" x2="104.189" y2="255.198" gradientUnits="userSpaceOnUse">
<stop stop-color="#BE965D"/>
<stop offset="0.2784" stop-color="#976F40"/>
<stop offset="0.4259" stop-color="#C99B61"/>
<stop offset="0.5584" stop-color="#F0BE7B"/>
<stop offset="0.6275" stop-color="#FFCB85"/>
<stop offset="0.7085" stop-color="#EEBC79"/>
<stop offset="0.8693" stop-color="#C0935B"/>
<stop offset="1" stop-color="#976F40"/>
</linearGradient>
<linearGradient id="paint75_linear_5_3729" x1="110.233" y1="-286.61" x2="126.732" y2="254.511" gradientUnits="userSpaceOnUse">
<stop stop-color="#BE965D"/>
<stop offset="0.2784" stop-color="#976F40"/>
<stop offset="0.4259" stop-color="#C99B61"/>
<stop offset="0.5584" stop-color="#F0BE7B"/>
<stop offset="0.6275" stop-color="#FFCB85"/>
<stop offset="0.7085" stop-color="#EEBC79"/>
<stop offset="0.8693" stop-color="#C0935B"/>
<stop offset="1" stop-color="#976F40"/>
</linearGradient>
</defs>
</svg>
