<?xml version="1.0" encoding="UTF-8"?>
<!DOCTYPE svg PUBLIC "-//W3C//DTD SVG 1.1//EN" "http://www.w3.org/Graphics/SVG/1.1/DTD/svg11.dtd">
<svg xmlns="http://www.w3.org/2000/svg" version="1.1" width="512px" height="512px" style="shape-rendering:geometricPrecision; text-rendering:geometricPrecision; image-rendering:optimizeQuality; fill-rule:evenodd; clip-rule:evenodd" xmlns:xlink="http://www.w3.org/1999/xlink">
<g><path style="opacity:0.997" fill="#000000" d="M 69.5,95.5 C 193.5,95.3333 317.5,95.5 441.5,96C 461.333,101.167 473.833,113.667 479,133.5C 479.5,142.16 479.666,150.827 479.5,159.5C 330.167,159.5 180.833,159.5 31.5,159.5C 26.5381,127.232 39.2048,105.898 69.5,95.5 Z"/></g>
<g><path style="opacity:0.998" fill="#000000" d="M 31.5,191.5 C 180.833,191.5 330.167,191.5 479.5,191.5C 479.667,253.501 479.5,315.501 479,377.5C 473.833,397.333 461.333,409.833 441.5,415C 317.5,415.667 193.5,415.667 69.5,415C 49.6667,409.833 37.1667,397.333 32,377.5C 31.5,315.501 31.3333,253.501 31.5,191.5 Z M 287.5,303.5 C 319.502,303.333 351.502,303.5 383.5,304C 395.343,305.847 400.176,312.68 398,324.5C 395.399,331.053 390.566,334.553 383.5,335C 351.5,335.667 319.5,335.667 287.5,335C 273.656,331.813 269.49,323.646 275,310.5C 278.464,306.69 282.631,304.356 287.5,303.5 Z"/></g>
</svg>
