<svg width="130" height="24" viewBox="0 0 130 24" fill="none" xmlns="http://www.w3.org/2000/svg">
<path d="M17.0193 1.92487C18.3446 1.92868 19.6145 2.43698 20.5516 3.33876C21.4888 4.24054 22.017 5.46252 22.021 6.73783V16.3627C22.017 17.638 21.4888 18.86 20.5516 19.7618C19.6145 20.6635 18.3446 21.1718 17.0193 21.1757H7.01711C5.69181 21.1718 4.42192 20.6635 3.48479 19.7618C2.54766 18.86 2.01943 17.638 2.01547 16.3627V6.73783C2.01943 5.46252 2.54766 4.24054 3.48479 3.33876C4.42192 2.43698 5.69181 1.92868 7.01711 1.92487H17.0193ZM17.0193 0H7.01711C3.16594 0 0.0151367 3.03194 0.0151367 6.73783V16.3627C0.0151367 20.0686 3.16594 23.1005 7.01711 23.1005H17.0193C20.8705 23.1005 24.0213 20.0686 24.0213 16.3627V6.73783C24.0213 3.03194 20.8705 0 17.0193 0Z" fill="#181818"/>
<path d="M18.5191 6.7384C18.2224 6.7384 17.9323 6.65372 17.6856 6.49508C17.4388 6.33643 17.2465 6.11094 17.133 5.84713C17.0194 5.58331 16.9897 5.29301 17.0476 5.01295C17.1055 4.73288 17.2484 4.47562 17.4582 4.2737C17.668 4.07179 17.9354 3.93428 18.2264 3.87857C18.5175 3.82286 18.8192 3.85146 19.0933 3.96073C19.3675 4.07001 19.6018 4.25506 19.7667 4.49249C19.9315 4.72992 20.0195 5.00906 20.0195 5.29461C20.0199 5.48433 19.9814 5.67226 19.9062 5.84761C19.8309 6.02296 19.7204 6.18228 19.581 6.31643C19.4416 6.45058 19.276 6.55691 19.0938 6.62933C18.9116 6.70174 18.7163 6.7388 18.5191 6.7384ZM12.0177 7.70058C12.809 7.70058 13.5826 7.92639 14.2406 8.34946C14.8986 8.77253 15.4114 9.37386 15.7143 10.0774C16.0171 10.7809 16.0964 11.5551 15.942 12.302C15.7876 13.0489 15.4065 13.7349 14.8469 14.2734C14.2874 14.8118 13.5744 15.1785 12.7982 15.3271C12.0221 15.4757 11.2176 15.3994 10.4865 15.108C9.75534 14.8166 9.13043 14.3231 8.69077 13.6899C8.25112 13.0568 8.01645 12.3123 8.01645 11.5508C8.01758 10.53 8.4395 9.55132 9.18963 8.8295C9.93975 8.10767 10.9568 7.70167 12.0177 7.70058ZM12.0177 5.7757C10.8307 5.7757 9.67033 6.11441 8.68338 6.74899C7.69643 7.38357 6.9272 8.28552 6.47296 9.34079C6.01871 10.3961 5.89986 11.5572 6.13143 12.6775C6.363 13.7978 6.9346 14.8268 7.77393 15.6345C8.61326 16.4421 9.68263 16.9922 10.8468 17.215C12.011 17.4378 13.2177 17.3235 14.3143 16.8864C15.411 16.4493 16.3483 15.709 17.0078 14.7593C17.6672 13.8096 18.0192 12.693 18.0192 11.5508C18.0192 10.0192 17.3869 8.55025 16.2614 7.4672C15.1359 6.38415 13.6094 5.7757 12.0177 5.7757Z" fill="#181818"/>
<path fill-rule="evenodd" clip-rule="evenodd" d="M77.8277 11.6199C77.8277 5.20438 72.274 0.00244141 65.4246 0.00244141C58.5752 0.00244141 53.0215 5.20438 53.0215 11.6199C53.0215 17.4183 57.5564 22.2245 63.4866 23.0969V14.9792H60.3366V11.6199H63.4866V9.06046C63.4866 6.14934 65.3388 4.54001 68.1716 4.54001C69.5287 4.54001 70.9484 4.76717 70.9484 4.76717V7.62642H69.3836C67.8438 7.62642 67.362 8.52159 67.362 9.44166V11.6199H70.8017L70.2524 14.9792H67.3626V23.0979C73.2928 22.2261 77.8277 17.4199 77.8277 11.6199Z" fill="#181818"/>
<path d="M129.985 4.4875C129.116 4.86467 128.197 5.11316 127.257 5.22511C128.245 4.64677 128.988 3.72799 129.347 2.64106C128.413 3.18708 127.392 3.5702 126.329 3.77399C125.881 3.30517 125.343 2.9322 124.746 2.67777C124.15 2.42334 123.508 2.29276 122.86 2.29395C120.234 2.29395 118.11 4.38626 118.11 6.96548C118.108 7.32424 118.149 7.68193 118.232 8.03092C116.349 7.94272 114.506 7.46281 112.82 6.62187C111.133 5.78093 109.641 4.59749 108.439 3.14727C108.017 3.85794 107.794 4.66879 107.793 5.49508C107.793 7.11493 108.638 8.54676 109.915 9.38561C109.159 9.36767 108.418 9.16756 107.755 8.80227V8.86013C107.755 11.126 109.395 13.011 111.566 13.4401C111.158 13.5488 110.737 13.6039 110.315 13.604C110.015 13.6045 109.716 13.5754 109.422 13.5172C110.025 15.3733 111.782 16.7231 113.863 16.7617C112.172 18.0638 110.096 18.7676 107.961 18.7624C107.582 18.7619 107.204 18.7393 106.828 18.6949C108.999 20.0806 111.523 20.8135 114.1 20.8065C122.85 20.8065 127.63 13.6859 127.63 7.51025C127.63 7.30777 127.624 7.10529 127.615 6.90763C128.542 6.24815 129.345 5.42861 129.985 4.4875Z" fill="#181818"/>
</svg>
