<svg width="192" height="30" viewBox="0 0 192 30" fill="none" xmlns="http://www.w3.org/2000/svg">
<path d="M29.24 14.62C29.24 6.54 22.69 0 14.62 0C6.54 0 0 6.55 0 14.62C0 21.92 5.35 27.97 12.34 29.06V18.85H8.63V14.62H12.34V11.4C12.34 7.74 14.52 5.71 17.86 5.71C19.46 5.71 21.13 6 21.13 6V9.6H19.29C17.47 9.6 16.91 10.73 16.91 11.88V14.62H20.97L20.32 18.85H16.91V29.07C23.89 27.97 29.24 21.92 29.24 14.62Z" fill="black"/>
<path d="M20.31 18.85L20.96 14.62H16.9V11.88C16.9 10.72 17.47 9.59996 19.28 9.59996H21.12V5.99996C21.12 5.99996 19.45 5.70996 17.85 5.70996C14.51 5.70996 12.33 7.72996 12.33 11.4V14.62H8.62V18.85H12.33V29.07C13.07 29.19 13.84 29.25 14.61 29.25C15.39 29.25 16.15 29.19 16.89 29.07V18.85H20.31Z" fill="white"/>
<path d="M68.86 29.24C76.9344 29.24 83.48 22.6944 83.48 14.62C83.48 6.5456 76.9344 0 68.86 0C60.7856 0 54.24 6.5456 54.24 14.62C54.24 22.6944 60.7856 29.24 68.86 29.24Z" fill="black"/>
<path d="M73.3904 9.09033C72.8304 9.09033 72.3904 9.54033 72.3904 10.1003C72.3904 10.6603 72.8404 11.1103 73.3904 11.1103C73.9504 11.1103 74.4004 10.6603 74.4004 10.1003C74.4004 9.54033 73.9504 9.09033 73.3904 9.09033Z" fill="white"/>
<path d="M68.9297 10.3804C66.5997 10.3804 64.7097 12.2704 64.7097 14.6004C64.7097 16.9304 66.5997 18.8204 68.9297 18.8204C71.2597 18.8204 73.1497 16.9304 73.1497 14.6004C73.1497 12.2704 71.2497 10.3804 68.9297 10.3804ZM68.9297 17.3104C67.4397 17.3104 66.2297 16.1004 66.2297 14.6104C66.2297 13.1204 67.4397 11.9104 68.9297 11.9104C70.4197 11.9104 71.6297 13.1204 71.6297 14.6104C71.6297 16.1004 70.4197 17.3104 68.9297 17.3104Z" fill="white"/>
<path d="M72.28 23.1703H65.43C62.59 23.1703 60.28 20.8603 60.28 18.0203V11.1803C60.28 8.34027 62.59 6.03027 65.43 6.03027H72.27C75.11 6.03027 77.42 8.34027 77.42 11.1803V18.0203C77.43 20.8603 75.12 23.1703 72.28 23.1703ZM65.43 7.64027C63.48 7.64027 61.89 9.23027 61.89 11.1803V18.0203C61.89 19.9703 63.48 21.5603 65.43 21.5603H72.27C74.22 21.5603 75.81 19.9703 75.81 18.0203V11.1803C75.81 9.23027 74.22 7.64027 72.27 7.64027H65.43Z" fill="white"/>
<path d="M123.1 29.24C131.174 29.24 137.72 22.6944 137.72 14.62C137.72 6.5456 131.174 0 123.1 0C115.026 0 108.48 6.5456 108.48 14.62C108.48 22.6944 115.026 29.24 123.1 29.24Z" fill="black"/>
<path d="M131.18 9.61011C130.67 9.84011 130.11 9.98011 129.57 10.0701C129.83 10.0301 130.21 9.56011 130.36 9.37011C130.59 9.08011 130.79 8.75011 130.9 8.39011C130.91 8.36011 130.92 8.33011 130.9 8.31011C130.86 8.30011 130.84 8.30011 130.81 8.32011C130.2 8.65011 129.57 8.88011 128.9 9.05011C128.84 9.06011 128.8 9.05011 128.77 9.02011C128.71 8.96011 128.66 8.90011 128.6 8.85011C128.32 8.61011 128.02 8.42011 127.67 8.28011C127.22 8.10011 126.73 8.02011 126.25 8.05011C125.78 8.08011 125.32 8.21011 124.9 8.43011C124.48 8.65011 124.11 8.95011 123.81 9.32011C123.5 9.70011 123.28 10.1501 123.16 10.6201C123.05 11.0801 123.06 11.5301 123.13 11.9901C123.14 12.0701 123.13 12.0801 123.06 12.0701C120.43 11.6801 118.26 10.7401 116.49 8.73011C116.41 8.64011 116.37 8.64011 116.31 8.74011C115.54 9.90011 115.91 11.7601 116.88 12.6801C117.01 12.8001 117.14 12.9201 117.28 13.0401C117.23 13.0501 116.59 12.9801 116.01 12.6801C115.93 12.6301 115.89 12.6601 115.89 12.7501C115.88 12.8801 115.89 12.9901 115.91 13.1301C116.06 14.3001 116.87 15.3901 117.99 15.8201C118.12 15.8801 118.27 15.9201 118.41 15.9501C118.16 16.0101 117.89 16.0501 117.17 15.9901C117.08 15.9701 117.04 16.0201 117.08 16.1001C117.63 17.5901 118.81 18.0401 119.69 18.2901C119.81 18.3101 119.93 18.3101 120.05 18.3401C120.04 18.3501 120.04 18.3501 120.03 18.3601C119.74 18.8101 118.72 19.1401 118.25 19.3101C117.39 19.6101 116.45 19.7501 115.54 19.6601C115.39 19.6401 115.36 19.6401 115.32 19.6601C115.28 19.6801 115.31 19.7201 115.36 19.7601C115.54 19.8801 115.73 19.9901 115.92 20.0901C116.5 20.4001 117.1 20.6401 117.73 20.8101C120.99 21.7101 124.65 21.0501 127.1 18.6201C129.02 16.7101 129.69 14.0801 129.69 11.4501C129.69 11.3501 129.81 11.2901 129.88 11.2401C130.38 10.8601 130.78 10.4201 131.15 9.91011C131.23 9.80011 131.23 9.70011 131.23 9.66011C131.23 9.65011 131.23 9.65011 131.23 9.65011C131.25 9.57011 131.25 9.58011 131.18 9.61011Z" fill="white"/>
<path d="M177.34 29.24C185.414 29.24 191.96 22.6944 191.96 14.62C191.96 6.5456 185.414 0 177.34 0C169.266 0 162.72 6.5456 162.72 14.62C162.72 22.6944 169.266 29.24 177.34 29.24Z" fill="black"/>
<path d="M171.211 11.8999H174.041V20.9999H171.211V11.8999ZM172.621 7.37988C173.531 7.37988 174.261 8.10988 174.261 9.01988C174.261 9.91988 173.531 10.6599 172.621 10.6599C171.711 10.6599 170.981 9.91988 170.981 9.01988C170.981 8.10988 171.721 7.37988 172.621 7.37988Z" fill="white"/>
<path d="M175.81 11.8999H178.52V13.1399H178.56C178.94 12.4199 179.86 11.6699 181.24 11.6699C184.1 11.6699 184.63 13.5499 184.63 15.9999V20.9899H181.8V16.5699C181.8 15.5099 181.78 14.1599 180.33 14.1599C178.86 14.1599 178.63 15.3099 178.63 16.4999V20.9999H175.8V11.8999H175.81Z" fill="white"/>
</svg>
